G04 MADE WITH FRITZING*
G04 WWW.FRITZING.ORG*
G04 DOUBLE SIDED*
G04 HOLES PLATED*
G04 CONTOUR ON CENTER OF CONTOUR VECTOR*
%ASAXBY*%
%FSLAX23Y23*%
%MOIN*%
%OFA0B0*%
%SFA1.0B1.0*%
%ADD10C,0.078000*%
%ADD11C,0.080000*%
%ADD12C,0.079370*%
%ADD13C,0.051496*%
%ADD14C,0.077778*%
%ADD15C,0.062992*%
%ADD16C,0.069444*%
%ADD17C,0.070000*%
%ADD18C,0.075000*%
%ADD19C,0.138425*%
%ADD20C,0.066555*%
%ADD21C,0.039370*%
%ADD22R,0.080000X0.080000*%
%ADD23R,0.062992X0.062992*%
%ADD24C,0.024000*%
%LNCOPPER0*%
G90*
G70*
G54D10*
X1537Y177D03*
X1637Y177D03*
X237Y1327D03*
X237Y1227D03*
X237Y927D03*
X237Y1027D03*
G54D11*
X2287Y1327D03*
X2287Y1127D03*
G54D12*
X1237Y1027D03*
X1237Y927D03*
X1237Y827D03*
X1237Y727D03*
X1237Y627D03*
X1237Y527D03*
X1237Y427D03*
X1237Y327D03*
X537Y1027D03*
X537Y927D03*
X537Y827D03*
X537Y727D03*
X537Y627D03*
X537Y527D03*
X537Y427D03*
X537Y327D03*
G54D13*
X487Y1427D03*
X587Y1427D03*
X387Y1577D03*
X487Y1577D03*
G54D14*
X437Y1027D03*
X437Y927D03*
X437Y827D03*
X437Y727D03*
X437Y627D03*
X437Y527D03*
X437Y427D03*
X437Y327D03*
X1337Y327D03*
X1337Y427D03*
X1337Y527D03*
X1337Y627D03*
X1337Y727D03*
X1337Y827D03*
X1337Y927D03*
X1337Y1027D03*
G54D15*
X138Y427D03*
X237Y427D03*
X187Y726D03*
X187Y627D03*
G54D16*
X687Y1427D03*
X787Y1427D03*
X887Y1427D03*
X1187Y1427D03*
X1087Y1427D03*
X987Y1427D03*
G54D17*
X2337Y1577D03*
X2237Y1577D03*
X2137Y1577D03*
X2037Y1577D03*
X1937Y1577D03*
X1837Y1577D03*
X1737Y1577D03*
X1637Y1577D03*
X1537Y1577D03*
X1437Y1577D03*
G54D18*
X1537Y527D03*
X1537Y927D03*
X1437Y627D03*
X1437Y1027D03*
G54D17*
X1937Y377D03*
G54D19*
X2437Y877D03*
G54D17*
X1937Y777D03*
X1937Y577D03*
X1937Y177D03*
X1937Y877D03*
X1937Y677D03*
X1937Y477D03*
X1937Y277D03*
G54D19*
X2437Y177D03*
G54D20*
X687Y1677D03*
X787Y1677D03*
X887Y1677D03*
X1187Y1677D03*
X1087Y1677D03*
X987Y1677D03*
G54D21*
X1737Y727D03*
X1737Y927D03*
X1537Y1128D03*
X1837Y1127D03*
G54D22*
X2287Y1327D03*
G54D23*
X138Y427D03*
X187Y726D03*
G54D24*
X1836Y176D02*
X1667Y177D01*
D02*
X1836Y78D02*
X1836Y176D01*
D02*
X1138Y628D02*
X1138Y176D01*
D02*
X1138Y176D02*
X1507Y177D01*
D02*
X568Y627D02*
X1138Y628D01*
D02*
X1856Y1127D02*
X2256Y1127D01*
D02*
X587Y1778D02*
X587Y1476D01*
D02*
X587Y1476D02*
X587Y1454D01*
D02*
X2036Y1776D02*
X587Y1778D01*
D02*
X2037Y1608D02*
X2036Y1776D01*
D02*
X1637Y827D02*
X1366Y827D01*
D02*
X1836Y576D02*
X1837Y827D01*
D02*
X1837Y827D02*
X1637Y827D01*
D02*
X1906Y577D02*
X1836Y576D01*
D02*
X2038Y877D02*
X2037Y77D01*
D02*
X1937Y77D02*
X1836Y78D01*
D02*
X2037Y77D02*
X1937Y77D01*
D02*
X1836Y78D02*
X1837Y427D01*
D02*
X1837Y427D02*
X1366Y427D01*
D02*
X1968Y877D02*
X2038Y877D01*
D02*
X1937Y1128D02*
X1937Y908D01*
D02*
X1856Y1127D02*
X1937Y1128D01*
D02*
X1718Y727D02*
X1366Y727D01*
D02*
X1636Y828D02*
X1366Y827D01*
D02*
X1637Y1546D02*
X1636Y828D01*
D02*
X1737Y946D02*
X1737Y1546D01*
D02*
X987Y1527D02*
X987Y1454D01*
D02*
X1087Y1527D02*
X987Y1527D01*
D02*
X1087Y1650D02*
X1087Y1527D01*
D02*
X788Y1526D02*
X886Y1527D01*
D02*
X886Y1527D02*
X887Y1454D01*
D02*
X787Y1650D02*
X788Y1526D01*
D02*
X1336Y1527D02*
X1337Y1676D01*
D02*
X1337Y1676D02*
X1537Y1676D01*
D02*
X1537Y1676D02*
X1537Y1608D01*
D02*
X1087Y1527D02*
X1336Y1527D01*
D02*
X1537Y1546D02*
X1537Y1147D01*
D02*
X1336Y1328D02*
X336Y1328D01*
D02*
X336Y1328D02*
X267Y1327D01*
D02*
X1336Y1527D02*
X1336Y1328D01*
D02*
X2137Y1877D02*
X2137Y1608D01*
D02*
X487Y1604D02*
X486Y1876D01*
D02*
X486Y1876D02*
X2137Y1877D01*
G04 End of Copper0*
M02*