G04 MADE WITH FRITZING*
G04 WWW.FRITZING.ORG*
G04 DOUBLE SIDED*
G04 HOLES PLATED*
G04 CONTOUR ON CENTER OF CONTOUR VECTOR*
%ASAXBY*%
%FSLAX23Y23*%
%MOIN*%
%OFA0B0*%
%SFA1.0B1.0*%
%ADD10C,0.088000*%
%ADD11C,0.090000*%
%ADD12C,0.089370*%
%ADD13C,0.061496*%
%ADD14C,0.087778*%
%ADD15C,0.072992*%
%ADD16C,0.079444*%
%ADD17C,0.080000*%
%ADD18C,0.085000*%
%ADD19C,0.148425*%
%ADD20C,0.076555*%
%ADD21C,0.049370*%
%ADD22C,0.175354*%
%ADD23R,0.090000X0.090000*%
%ADD24R,0.072992X0.072992*%
%LNMASK0*%
G90*
G70*
G54D10*
X1537Y177D03*
X1637Y177D03*
X237Y1327D03*
X237Y1227D03*
X237Y927D03*
X237Y1027D03*
G54D11*
X2287Y1327D03*
X2287Y1127D03*
G54D12*
X1237Y1027D03*
X1237Y927D03*
X1237Y827D03*
X1237Y727D03*
X1237Y627D03*
X1237Y527D03*
X1237Y427D03*
X1237Y327D03*
X537Y1027D03*
X537Y927D03*
X537Y827D03*
X537Y727D03*
X537Y627D03*
X537Y527D03*
X537Y427D03*
X537Y327D03*
G54D13*
X487Y1427D03*
X587Y1427D03*
X387Y1577D03*
X487Y1577D03*
G54D14*
X437Y1027D03*
X437Y927D03*
X437Y827D03*
X437Y727D03*
X437Y627D03*
X437Y527D03*
X437Y427D03*
X437Y327D03*
X1337Y327D03*
X1337Y427D03*
X1337Y527D03*
X1337Y627D03*
X1337Y727D03*
X1337Y827D03*
X1337Y927D03*
X1337Y1027D03*
G54D15*
X138Y427D03*
X237Y427D03*
X187Y726D03*
X187Y627D03*
G54D16*
X687Y1427D03*
X787Y1427D03*
X887Y1427D03*
X1187Y1427D03*
X1087Y1427D03*
X987Y1427D03*
G54D17*
X2337Y1577D03*
X2237Y1577D03*
X2137Y1577D03*
X2037Y1577D03*
X1937Y1577D03*
X1837Y1577D03*
X1737Y1577D03*
X1637Y1577D03*
X1537Y1577D03*
X1437Y1577D03*
G54D18*
X1537Y527D03*
X1537Y927D03*
X1437Y627D03*
X1437Y1027D03*
G54D17*
X1937Y377D03*
G54D19*
X2437Y877D03*
G54D17*
X1937Y777D03*
X1937Y577D03*
X1937Y177D03*
X1937Y877D03*
X1937Y677D03*
X1937Y477D03*
X1937Y277D03*
G54D19*
X2437Y177D03*
G54D20*
X687Y1677D03*
X787Y1677D03*
X887Y1677D03*
X1187Y1677D03*
X1087Y1677D03*
X987Y1677D03*
G54D21*
X1737Y727D03*
X1737Y927D03*
X1537Y1128D03*
X1837Y1127D03*
G54D22*
X237Y1727D03*
X2237Y327D03*
X837Y277D03*
G54D23*
X2287Y1327D03*
G54D24*
X138Y427D03*
X187Y726D03*
G04 End of Mask0*
M02*