; NON-PLATED HOLES START AT T1
; THROUGH (PLATED) HOLES START AT T100
M48
INCH
T1C0.165354
T100C0.031497
T101C0.098425
T102C0.039370
T103C0.035000
T104C0.030556
T105C0.038000
T106C0.031833
T107C0.015748
T108C0.036111
T109C0.040000
T110C0.031496
%
T1
X022367Y003271
X008367Y002771
X002367Y017271
T100
X001383Y004271
X002367Y004271
X001867Y006271
X001867Y007256
T101
X024367Y001771
X024367Y008771
T102
X019367Y002771
X019367Y005771
X012367Y005271
X017367Y015771
X020367Y015771
X012367Y007271
X019367Y003771
X012367Y008271
X005367Y010271
X012367Y009271
X012367Y006271
X019367Y004771
X005367Y004271
X005367Y005271
X019367Y015771
X016367Y015771
X012367Y003271
X019367Y001771
X005367Y007271
X019367Y007771
X005367Y008271
X005367Y006271
X018367Y015771
X005367Y003271
X005367Y009271
X012367Y004271
X012367Y010271
X015367Y015771
X022367Y015771
X023367Y015771
X019367Y008771
X014367Y015771
X021367Y015771
X019367Y006771
T103
X015367Y005271
X014367Y006271
X014367Y010271
X015367Y009271
T104
X009867Y014271
X007869Y014270
X006868Y014271
X010865Y014272
X008867Y014271
X011866Y014271
T105
X002367Y010271
X016367Y001771
X002367Y012271
X002367Y009271
X002367Y013271
X015367Y001771
T106
X011867Y016771
X010867Y016771
X007867Y016771
X009867Y016771
X008867Y016771
X006867Y016771
T107
X015374Y011277
X017374Y007265
X017367Y009271
X018367Y011271
T108
X004367Y005271
X004367Y008271
X004367Y009271
X004367Y010271
X013367Y007271
X004367Y007271
X013367Y010271
X013367Y003271
X004367Y003271
X004367Y006271
X013367Y005271
X004367Y004271
X013367Y006271
X013367Y004271
X013367Y008271
X013367Y009271
T109
X022867Y011271
X022867Y013271
T110
X003867Y015771
X005867Y014271
X004867Y014271
X004867Y015771
T00
M30
