G04 MADE WITH FRITZING*
G04 WWW.FRITZING.ORG*
G04 DOUBLE SIDED*
G04 HOLES PLATED*
G04 CONTOUR ON CENTER OF CONTOUR VECTOR*
%ASAXBY*%
%FSLAX23Y23*%
%MOIN*%
%OFA0B0*%
%SFA1.0B1.0*%
%ADD10C,0.008*%
%LNCONTOUR*%
G90*
G70*
G54D10*
X367Y1969D02*
X368Y1969D01*
X369Y1969D01*
X370Y1969D01*
X371Y1969D01*
X372Y1969D01*
X373Y1969D01*
X374Y1969D01*
X375Y1969D01*
X376Y1969D01*
X377Y1969D01*
X378Y1969D01*
X379Y1969D01*
X380Y1969D01*
X381Y1969D01*
X382Y1969D01*
X383Y1969D01*
X384Y1969D01*
X385Y1969D01*
X386Y1969D01*
X387Y1969D01*
X388Y1969D01*
X389Y1969D01*
X390Y1969D01*
X391Y1969D01*
X392Y1969D01*
X393Y1969D01*
X394Y1969D01*
X395Y1969D01*
X396Y1969D01*
X397Y1969D01*
X398Y1969D01*
X399Y1969D01*
X400Y1969D01*
X401Y1969D01*
X402Y1969D01*
X403Y1969D01*
X404Y1969D01*
X405Y1969D01*
X406Y1969D01*
X407Y1969D01*
X408Y1969D01*
X409Y1969D01*
X410Y1969D01*
X411Y1969D01*
X412Y1969D01*
X413Y1969D01*
X414Y1969D01*
X415Y1969D01*
X416Y1969D01*
X417Y1969D01*
X418Y1969D01*
X419Y1969D01*
X420Y1969D01*
X421Y1969D01*
X422Y1969D01*
X423Y1969D01*
X424Y1969D01*
X425Y1969D01*
X426Y1969D01*
X427Y1969D01*
X428Y1969D01*
X429Y1969D01*
X430Y1969D01*
X431Y1969D01*
X432Y1969D01*
X433Y1969D01*
X434Y1969D01*
X435Y1969D01*
X436Y1969D01*
X437Y1969D01*
X438Y1969D01*
X439Y1969D01*
X440Y1969D01*
X441Y1969D01*
X442Y1969D01*
X443Y1969D01*
X444Y1969D01*
X445Y1969D01*
X446Y1969D01*
X447Y1969D01*
X448Y1969D01*
X449Y1969D01*
X450Y1969D01*
X451Y1969D01*
X452Y1969D01*
X453Y1969D01*
X454Y1969D01*
X455Y1969D01*
X456Y1969D01*
X457Y1969D01*
X458Y1969D01*
X459Y1969D01*
X460Y1969D01*
X461Y1969D01*
X462Y1969D01*
X463Y1969D01*
X464Y1969D01*
X465Y1969D01*
X466Y1969D01*
X467Y1969D01*
X468Y1969D01*
X469Y1969D01*
X470Y1969D01*
X471Y1969D01*
X472Y1969D01*
X473Y1969D01*
X474Y1969D01*
X475Y1969D01*
X476Y1969D01*
X477Y1969D01*
X478Y1969D01*
X479Y1969D01*
X480Y1969D01*
X481Y1969D01*
X482Y1969D01*
X483Y1969D01*
X484Y1969D01*
X485Y1969D01*
X486Y1969D01*
X487Y1969D01*
X488Y1969D01*
X489Y1969D01*
X490Y1969D01*
X491Y1969D01*
X492Y1969D01*
X493Y1969D01*
X494Y1969D01*
X495Y1969D01*
X496Y1969D01*
X497Y1969D01*
X498Y1969D01*
X499Y1969D01*
X500Y1969D01*
X501Y1969D01*
X502Y1969D01*
X503Y1969D01*
X504Y1969D01*
X505Y1969D01*
X506Y1969D01*
X507Y1969D01*
X508Y1969D01*
X509Y1969D01*
X510Y1969D01*
X511Y1969D01*
X512Y1969D01*
X513Y1969D01*
X514Y1969D01*
X515Y1969D01*
X516Y1969D01*
X517Y1969D01*
X518Y1969D01*
X519Y1969D01*
X520Y1969D01*
X521Y1969D01*
X522Y1969D01*
X523Y1969D01*
X524Y1969D01*
X525Y1969D01*
X526Y1969D01*
X527Y1969D01*
X528Y1969D01*
X529Y1969D01*
X530Y1969D01*
X531Y1969D01*
X532Y1969D01*
X533Y1969D01*
X534Y1969D01*
X535Y1969D01*
X536Y1969D01*
X537Y1969D01*
X538Y1969D01*
X539Y1969D01*
X540Y1969D01*
X541Y1969D01*
X542Y1969D01*
X543Y1969D01*
X544Y1969D01*
X545Y1969D01*
X546Y1969D01*
X547Y1969D01*
X548Y1969D01*
X549Y1969D01*
X550Y1969D01*
X551Y1969D01*
X552Y1969D01*
X553Y1969D01*
X554Y1969D01*
X555Y1969D01*
X556Y1969D01*
X557Y1969D01*
X558Y1969D01*
X559Y1969D01*
X560Y1969D01*
X561Y1969D01*
X562Y1969D01*
X563Y1969D01*
X564Y1969D01*
X565Y1969D01*
X566Y1969D01*
X567Y1969D01*
X568Y1969D01*
X569Y1969D01*
X570Y1969D01*
X571Y1969D01*
X572Y1969D01*
X573Y1969D01*
X574Y1969D01*
X575Y1969D01*
X576Y1969D01*
X577Y1969D01*
X578Y1969D01*
X579Y1969D01*
X580Y1969D01*
X581Y1969D01*
X582Y1969D01*
X583Y1969D01*
X584Y1969D01*
X585Y1969D01*
X586Y1969D01*
X587Y1969D01*
X588Y1969D01*
X589Y1969D01*
X590Y1969D01*
X591Y1969D01*
X592Y1969D01*
X593Y1969D01*
X594Y1969D01*
X595Y1969D01*
X596Y1969D01*
X597Y1969D01*
X598Y1969D01*
X599Y1969D01*
X600Y1969D01*
X601Y1969D01*
X602Y1969D01*
X603Y1969D01*
X604Y1969D01*
X605Y1969D01*
X606Y1969D01*
X607Y1969D01*
X608Y1969D01*
X609Y1969D01*
X610Y1969D01*
X611Y1969D01*
X612Y1969D01*
X613Y1969D01*
X614Y1969D01*
X615Y1969D01*
X616Y1969D01*
X617Y1969D01*
X618Y1969D01*
X619Y1969D01*
X620Y1969D01*
X621Y1969D01*
X622Y1969D01*
X623Y1969D01*
X624Y1969D01*
X625Y1969D01*
X626Y1969D01*
X627Y1969D01*
X628Y1969D01*
X629Y1969D01*
X630Y1969D01*
X631Y1969D01*
X632Y1969D01*
X633Y1969D01*
X634Y1969D01*
X635Y1969D01*
X636Y1969D01*
X637Y1969D01*
X638Y1969D01*
X639Y1969D01*
X640Y1969D01*
X641Y1969D01*
X642Y1969D01*
X643Y1969D01*
X644Y1969D01*
X645Y1969D01*
X646Y1969D01*
X647Y1969D01*
X648Y1969D01*
X649Y1969D01*
X650Y1969D01*
X651Y1969D01*
X652Y1969D01*
X653Y1969D01*
X654Y1969D01*
X655Y1969D01*
X656Y1969D01*
X657Y1969D01*
X658Y1969D01*
X659Y1969D01*
X660Y1969D01*
X661Y1969D01*
X662Y1969D01*
X663Y1969D01*
X664Y1969D01*
X665Y1969D01*
X666Y1969D01*
X667Y1969D01*
X668Y1969D01*
X669Y1969D01*
X670Y1969D01*
X671Y1969D01*
X672Y1969D01*
X673Y1969D01*
X674Y1969D01*
X675Y1969D01*
X676Y1969D01*
X677Y1969D01*
X678Y1969D01*
X679Y1969D01*
X680Y1969D01*
X681Y1969D01*
X682Y1969D01*
X683Y1969D01*
X684Y1969D01*
X685Y1969D01*
X686Y1969D01*
X687Y1969D01*
X688Y1969D01*
X689Y1969D01*
X690Y1969D01*
X691Y1969D01*
X692Y1969D01*
X693Y1969D01*
X694Y1969D01*
X695Y1969D01*
X696Y1969D01*
X697Y1969D01*
X698Y1969D01*
X699Y1969D01*
X700Y1969D01*
X701Y1969D01*
X702Y1969D01*
X703Y1969D01*
X704Y1969D01*
X705Y1969D01*
X706Y1969D01*
X707Y1969D01*
X708Y1969D01*
X709Y1969D01*
X710Y1969D01*
X711Y1969D01*
X712Y1969D01*
X713Y1969D01*
X714Y1969D01*
X715Y1969D01*
X716Y1969D01*
X717Y1969D01*
X718Y1969D01*
X719Y1969D01*
X720Y1969D01*
X721Y1969D01*
X722Y1969D01*
X723Y1969D01*
X724Y1969D01*
X725Y1969D01*
X726Y1969D01*
X727Y1969D01*
X728Y1969D01*
X729Y1969D01*
X730Y1969D01*
X731Y1969D01*
X732Y1969D01*
X733Y1969D01*
X734Y1969D01*
X735Y1969D01*
X736Y1969D01*
X737Y1969D01*
X738Y1969D01*
X739Y1969D01*
X740Y1969D01*
X741Y1969D01*
X742Y1969D01*
X743Y1969D01*
X744Y1969D01*
X745Y1969D01*
X746Y1969D01*
X747Y1969D01*
X748Y1969D01*
X749Y1969D01*
X750Y1969D01*
X751Y1969D01*
X752Y1969D01*
X753Y1969D01*
X754Y1969D01*
X755Y1969D01*
X756Y1969D01*
X757Y1969D01*
X758Y1969D01*
X759Y1969D01*
X760Y1969D01*
X761Y1969D01*
X762Y1969D01*
X763Y1969D01*
X764Y1969D01*
X765Y1969D01*
X766Y1969D01*
X767Y1969D01*
X768Y1969D01*
X769Y1969D01*
X770Y1969D01*
X771Y1969D01*
X772Y1969D01*
X773Y1969D01*
X774Y1969D01*
X775Y1969D01*
X776Y1969D01*
X777Y1969D01*
X778Y1969D01*
X779Y1969D01*
X780Y1969D01*
X781Y1969D01*
X782Y1969D01*
X783Y1969D01*
X784Y1969D01*
X785Y1969D01*
X786Y1969D01*
X787Y1969D01*
X788Y1969D01*
X789Y1969D01*
X790Y1969D01*
X791Y1969D01*
X792Y1969D01*
X793Y1969D01*
X794Y1969D01*
X795Y1969D01*
X796Y1969D01*
X797Y1969D01*
X798Y1969D01*
X799Y1969D01*
X800Y1969D01*
X801Y1969D01*
X802Y1969D01*
X803Y1969D01*
X804Y1969D01*
X805Y1969D01*
X806Y1969D01*
X807Y1969D01*
X808Y1969D01*
X809Y1969D01*
X810Y1969D01*
X811Y1969D01*
X812Y1969D01*
X813Y1969D01*
X814Y1969D01*
X815Y1969D01*
X816Y1969D01*
X817Y1969D01*
X818Y1969D01*
X819Y1969D01*
X820Y1969D01*
X821Y1969D01*
X822Y1969D01*
X823Y1969D01*
X824Y1969D01*
X825Y1969D01*
X826Y1969D01*
X827Y1969D01*
X828Y1969D01*
X829Y1969D01*
X830Y1969D01*
X831Y1969D01*
X832Y1969D01*
X833Y1969D01*
X834Y1969D01*
X835Y1969D01*
X836Y1969D01*
X837Y1969D01*
X838Y1969D01*
X839Y1969D01*
X840Y1969D01*
X841Y1969D01*
X842Y1969D01*
X843Y1969D01*
X844Y1969D01*
X845Y1969D01*
X846Y1969D01*
X847Y1969D01*
X848Y1969D01*
X849Y1969D01*
X850Y1969D01*
X851Y1969D01*
X852Y1969D01*
X853Y1969D01*
X854Y1969D01*
X855Y1969D01*
X856Y1969D01*
X857Y1969D01*
X858Y1969D01*
X859Y1969D01*
X860Y1969D01*
X861Y1969D01*
X862Y1969D01*
X863Y1969D01*
X864Y1969D01*
X865Y1969D01*
X866Y1969D01*
X867Y1969D01*
X868Y1969D01*
X869Y1969D01*
X870Y1969D01*
X871Y1969D01*
X872Y1969D01*
X873Y1969D01*
X874Y1969D01*
X875Y1969D01*
X876Y1969D01*
X877Y1969D01*
X878Y1969D01*
X879Y1969D01*
X880Y1969D01*
X881Y1969D01*
X882Y1969D01*
X883Y1969D01*
X884Y1969D01*
X885Y1969D01*
X886Y1969D01*
X887Y1969D01*
X888Y1969D01*
X889Y1969D01*
X890Y1969D01*
X891Y1969D01*
X892Y1969D01*
X893Y1969D01*
X894Y1969D01*
X895Y1969D01*
X896Y1969D01*
X897Y1969D01*
X898Y1969D01*
X899Y1969D01*
X900Y1969D01*
X901Y1969D01*
X902Y1969D01*
X903Y1969D01*
X904Y1969D01*
X905Y1969D01*
X906Y1969D01*
X907Y1969D01*
X908Y1969D01*
X909Y1969D01*
X910Y1969D01*
X911Y1969D01*
X912Y1969D01*
X913Y1969D01*
X914Y1969D01*
X915Y1969D01*
X916Y1969D01*
X917Y1969D01*
X918Y1969D01*
X919Y1969D01*
X920Y1969D01*
X921Y1969D01*
X922Y1969D01*
X923Y1969D01*
X924Y1969D01*
X925Y1969D01*
X926Y1969D01*
X927Y1969D01*
X928Y1969D01*
X929Y1969D01*
X930Y1969D01*
X931Y1969D01*
X932Y1969D01*
X933Y1969D01*
X934Y1969D01*
X935Y1969D01*
X936Y1969D01*
X937Y1969D01*
X938Y1969D01*
X939Y1969D01*
X940Y1969D01*
X941Y1969D01*
X942Y1969D01*
X943Y1969D01*
X944Y1969D01*
X945Y1969D01*
X946Y1969D01*
X947Y1969D01*
X948Y1969D01*
X949Y1969D01*
X950Y1969D01*
X951Y1969D01*
X952Y1969D01*
X953Y1969D01*
X954Y1969D01*
X955Y1969D01*
X956Y1969D01*
X957Y1969D01*
X958Y1969D01*
X959Y1969D01*
X960Y1969D01*
X961Y1969D01*
X962Y1969D01*
X963Y1969D01*
X964Y1969D01*
X965Y1969D01*
X966Y1969D01*
X967Y1969D01*
X968Y1969D01*
X969Y1969D01*
X970Y1969D01*
X971Y1969D01*
X972Y1969D01*
X973Y1969D01*
X974Y1969D01*
X975Y1969D01*
X976Y1969D01*
X977Y1969D01*
X978Y1969D01*
X979Y1969D01*
X980Y1969D01*
X981Y1969D01*
X982Y1969D01*
X983Y1969D01*
X984Y1969D01*
X985Y1969D01*
X986Y1969D01*
X987Y1969D01*
X988Y1969D01*
X989Y1969D01*
X990Y1969D01*
X991Y1969D01*
X992Y1969D01*
X993Y1969D01*
X994Y1969D01*
X995Y1969D01*
X996Y1969D01*
X997Y1969D01*
X998Y1969D01*
X999Y1969D01*
X1000Y1969D01*
X1001Y1969D01*
X1002Y1969D01*
X1003Y1969D01*
X1004Y1969D01*
X1005Y1969D01*
X1006Y1969D01*
X1007Y1969D01*
X1008Y1969D01*
X1009Y1969D01*
X1010Y1969D01*
X1011Y1969D01*
X1012Y1969D01*
X1013Y1969D01*
X1014Y1969D01*
X1015Y1969D01*
X1016Y1969D01*
X1017Y1969D01*
X1018Y1969D01*
X1019Y1969D01*
X1020Y1969D01*
X1021Y1969D01*
X1022Y1969D01*
X1023Y1969D01*
X1024Y1969D01*
X1025Y1969D01*
X1026Y1969D01*
X1027Y1969D01*
X1028Y1969D01*
X1029Y1969D01*
X1030Y1969D01*
X1031Y1969D01*
X1032Y1969D01*
X1033Y1969D01*
X1034Y1969D01*
X1035Y1969D01*
X1036Y1969D01*
X1037Y1969D01*
X1038Y1969D01*
X1039Y1969D01*
X1040Y1969D01*
X1041Y1969D01*
X1042Y1969D01*
X1043Y1969D01*
X1044Y1969D01*
X1045Y1969D01*
X1046Y1969D01*
X1047Y1969D01*
X1048Y1969D01*
X1049Y1969D01*
X1050Y1969D01*
X1051Y1969D01*
X1052Y1969D01*
X1053Y1969D01*
X1054Y1969D01*
X1055Y1969D01*
X1056Y1969D01*
X1057Y1969D01*
X1058Y1969D01*
X1059Y1969D01*
X1060Y1969D01*
X1061Y1969D01*
X1062Y1969D01*
X1063Y1969D01*
X1064Y1969D01*
X1065Y1969D01*
X1066Y1969D01*
X1067Y1969D01*
X1068Y1969D01*
X1069Y1969D01*
X1070Y1969D01*
X1071Y1969D01*
X1072Y1969D01*
X1073Y1969D01*
X1074Y1969D01*
X1075Y1969D01*
X1076Y1969D01*
X1077Y1969D01*
X1078Y1969D01*
X1079Y1969D01*
X1080Y1969D01*
X1081Y1969D01*
X1082Y1969D01*
X1083Y1969D01*
X1084Y1969D01*
X1085Y1969D01*
X1086Y1969D01*
X1087Y1969D01*
X1088Y1969D01*
X1089Y1969D01*
X1090Y1969D01*
X1091Y1969D01*
X1092Y1969D01*
X1093Y1969D01*
X1094Y1969D01*
X1095Y1969D01*
X1096Y1969D01*
X1097Y1969D01*
X1098Y1969D01*
X1099Y1969D01*
X1100Y1969D01*
X1101Y1969D01*
X1102Y1969D01*
X1103Y1969D01*
X1104Y1969D01*
X1105Y1969D01*
X1106Y1969D01*
X1107Y1969D01*
X1108Y1969D01*
X1109Y1969D01*
X1110Y1969D01*
X1111Y1969D01*
X1112Y1969D01*
X1113Y1969D01*
X1114Y1969D01*
X1115Y1969D01*
X1116Y1969D01*
X1117Y1969D01*
X1118Y1969D01*
X1119Y1969D01*
X1120Y1969D01*
X1121Y1969D01*
X1122Y1969D01*
X1123Y1969D01*
X1124Y1969D01*
X1125Y1969D01*
X1126Y1969D01*
X1127Y1969D01*
X1128Y1969D01*
X1129Y1969D01*
X1130Y1969D01*
X1131Y1969D01*
X1132Y1969D01*
X1133Y1969D01*
X1134Y1969D01*
X1135Y1969D01*
X1136Y1969D01*
X1137Y1969D01*
X1138Y1969D01*
X1139Y1969D01*
X1140Y1969D01*
X1141Y1969D01*
X1142Y1969D01*
X1143Y1969D01*
X1144Y1969D01*
X1145Y1969D01*
X1146Y1969D01*
X1147Y1969D01*
X1148Y1969D01*
X1149Y1969D01*
X1150Y1969D01*
X1151Y1969D01*
X1152Y1969D01*
X1153Y1969D01*
X1154Y1969D01*
X1155Y1969D01*
X1156Y1969D01*
X1157Y1969D01*
X1158Y1969D01*
X1159Y1969D01*
X1160Y1969D01*
X1161Y1969D01*
X1162Y1969D01*
X1163Y1969D01*
X1164Y1969D01*
X1165Y1969D01*
X1166Y1969D01*
X1167Y1969D01*
X1168Y1969D01*
X1169Y1969D01*
X1170Y1969D01*
X1171Y1969D01*
X1172Y1969D01*
X1173Y1969D01*
X1174Y1969D01*
X1175Y1969D01*
X1176Y1969D01*
X1177Y1969D01*
X1178Y1969D01*
X1179Y1969D01*
X1180Y1969D01*
X1181Y1969D01*
X1182Y1969D01*
X1183Y1969D01*
X1184Y1969D01*
X1185Y1969D01*
X1186Y1969D01*
X1187Y1969D01*
X1188Y1969D01*
X1189Y1969D01*
X1190Y1969D01*
X1191Y1969D01*
X1192Y1969D01*
X1193Y1969D01*
X1194Y1969D01*
X1195Y1969D01*
X1196Y1969D01*
X1197Y1969D01*
X1198Y1969D01*
X1199Y1969D01*
X1200Y1969D01*
X1201Y1969D01*
X1202Y1969D01*
X1203Y1969D01*
X1204Y1969D01*
X1205Y1969D01*
X1206Y1969D01*
X1207Y1969D01*
X1208Y1969D01*
X1209Y1969D01*
X1210Y1969D01*
X1211Y1969D01*
X1212Y1969D01*
X1213Y1969D01*
X1214Y1969D01*
X1215Y1969D01*
X1216Y1969D01*
X1217Y1969D01*
X1218Y1969D01*
X1219Y1969D01*
X1220Y1969D01*
X1221Y1969D01*
X1222Y1969D01*
X1223Y1969D01*
X1224Y1969D01*
X1225Y1969D01*
X1226Y1969D01*
X1227Y1969D01*
X1228Y1969D01*
X1229Y1969D01*
X1230Y1969D01*
X1231Y1969D01*
X1232Y1969D01*
X1233Y1969D01*
X1234Y1969D01*
X1235Y1969D01*
X1236Y1969D01*
X1237Y1969D01*
X1238Y1969D01*
X1239Y1969D01*
X1240Y1969D01*
X1241Y1969D01*
X1242Y1969D01*
X1243Y1969D01*
X1244Y1969D01*
X1245Y1969D01*
X1246Y1969D01*
X1247Y1969D01*
X1248Y1969D01*
X1249Y1969D01*
X1250Y1969D01*
X1251Y1969D01*
X1252Y1969D01*
X1253Y1969D01*
X1254Y1969D01*
X1255Y1969D01*
X1256Y1969D01*
X1257Y1969D01*
X1258Y1969D01*
X1259Y1969D01*
X1260Y1969D01*
X1261Y1969D01*
X1262Y1969D01*
X1263Y1969D01*
X1264Y1969D01*
X1265Y1969D01*
X1266Y1969D01*
X1267Y1969D01*
X1268Y1969D01*
X1269Y1969D01*
X1270Y1969D01*
X1271Y1969D01*
X1272Y1969D01*
X1273Y1969D01*
X1274Y1969D01*
X1275Y1969D01*
X1276Y1969D01*
X1277Y1969D01*
X1278Y1969D01*
X1279Y1969D01*
X1280Y1969D01*
X1281Y1969D01*
X1282Y1969D01*
X1283Y1969D01*
X1284Y1969D01*
X1285Y1969D01*
X1286Y1969D01*
X1287Y1969D01*
X1288Y1969D01*
X1289Y1969D01*
X1290Y1969D01*
X1291Y1969D01*
X1292Y1969D01*
X1293Y1969D01*
X1294Y1969D01*
X1295Y1969D01*
X1296Y1969D01*
X1297Y1969D01*
X1298Y1969D01*
X1299Y1969D01*
X1300Y1969D01*
X1301Y1969D01*
X1302Y1969D01*
X1303Y1969D01*
X1304Y1969D01*
X1305Y1969D01*
X1306Y1969D01*
X1307Y1969D01*
X1308Y1969D01*
X1309Y1969D01*
X1310Y1969D01*
X1311Y1969D01*
X1312Y1969D01*
X1313Y1969D01*
X1314Y1969D01*
X1315Y1969D01*
X1316Y1969D01*
X1317Y1969D01*
X1318Y1969D01*
X1319Y1969D01*
X1320Y1969D01*
X1321Y1969D01*
X1322Y1969D01*
X1323Y1969D01*
X1324Y1969D01*
X1325Y1969D01*
X1326Y1969D01*
X1327Y1969D01*
X1328Y1969D01*
X1329Y1969D01*
X1330Y1969D01*
X1331Y1969D01*
X1332Y1969D01*
X1333Y1969D01*
X1334Y1969D01*
X1335Y1969D01*
X1336Y1969D01*
X1337Y1969D01*
X1338Y1969D01*
X1339Y1969D01*
X1340Y1969D01*
X1341Y1969D01*
X1342Y1969D01*
X1343Y1969D01*
X1344Y1969D01*
X1345Y1969D01*
X1346Y1969D01*
X1347Y1969D01*
X1348Y1969D01*
X1349Y1969D01*
X1350Y1969D01*
X1351Y1969D01*
X1352Y1969D01*
X1353Y1969D01*
X1354Y1969D01*
X1355Y1969D01*
X1356Y1969D01*
X1357Y1969D01*
X1358Y1969D01*
X1359Y1969D01*
X1360Y1969D01*
X1361Y1969D01*
X1362Y1969D01*
X1363Y1969D01*
X1364Y1969D01*
X1365Y1969D01*
X1366Y1969D01*
X1367Y1969D01*
X1368Y1969D01*
X1369Y1969D01*
X1370Y1969D01*
X1371Y1969D01*
X1372Y1969D01*
X1373Y1969D01*
X1374Y1969D01*
X1375Y1969D01*
X1376Y1969D01*
X1377Y1969D01*
X1378Y1969D01*
X1379Y1969D01*
X1380Y1969D01*
X1381Y1969D01*
X1382Y1969D01*
X1383Y1969D01*
X1384Y1969D01*
X1385Y1969D01*
X1386Y1969D01*
X1387Y1969D01*
X1388Y1969D01*
X1389Y1969D01*
X1390Y1969D01*
X1391Y1969D01*
X1392Y1969D01*
X1393Y1969D01*
X1394Y1969D01*
X1395Y1969D01*
X1396Y1969D01*
X1397Y1969D01*
X1398Y1969D01*
X1399Y1969D01*
X1400Y1969D01*
X1401Y1969D01*
X1402Y1969D01*
X1403Y1969D01*
X1404Y1969D01*
X1405Y1969D01*
X1406Y1969D01*
X1407Y1969D01*
X1408Y1969D01*
X1409Y1969D01*
X1410Y1969D01*
X1411Y1969D01*
X1412Y1969D01*
X1413Y1969D01*
X1414Y1969D01*
X1415Y1969D01*
X1416Y1969D01*
X1417Y1969D01*
X1418Y1969D01*
X1419Y1969D01*
X1420Y1969D01*
X1421Y1969D01*
X1422Y1969D01*
X1423Y1969D01*
X1424Y1969D01*
X1425Y1969D01*
X1426Y1969D01*
X1427Y1969D01*
X1428Y1969D01*
X1429Y1969D01*
X1430Y1969D01*
X1431Y1969D01*
X1432Y1969D01*
X1433Y1969D01*
X1434Y1969D01*
X1435Y1969D01*
X1436Y1969D01*
X1437Y1969D01*
X1438Y1969D01*
X1439Y1969D01*
X1440Y1969D01*
X1441Y1969D01*
X1442Y1969D01*
X1443Y1969D01*
X1444Y1969D01*
X1445Y1969D01*
X1446Y1969D01*
X1447Y1969D01*
X1448Y1969D01*
X1449Y1969D01*
X1450Y1969D01*
X1451Y1969D01*
X1452Y1969D01*
X1453Y1969D01*
X1454Y1969D01*
X1455Y1969D01*
X1456Y1969D01*
X1457Y1969D01*
X1458Y1969D01*
X1459Y1969D01*
X1460Y1969D01*
X1461Y1969D01*
X1462Y1969D01*
X1463Y1969D01*
X1464Y1969D01*
X1465Y1969D01*
X1466Y1969D01*
X1467Y1969D01*
X1468Y1969D01*
X1469Y1969D01*
X1470Y1969D01*
X1471Y1969D01*
X1472Y1969D01*
X1473Y1969D01*
X1474Y1969D01*
X1475Y1969D01*
X1476Y1969D01*
X1477Y1969D01*
X1478Y1969D01*
X1479Y1969D01*
X1480Y1969D01*
X1481Y1969D01*
X1482Y1969D01*
X1483Y1969D01*
X1484Y1969D01*
X1485Y1969D01*
X1486Y1969D01*
X1487Y1969D01*
X1488Y1969D01*
X1489Y1969D01*
X1490Y1969D01*
X1491Y1969D01*
X1492Y1969D01*
X1493Y1969D01*
X1494Y1969D01*
X1495Y1969D01*
X1496Y1969D01*
X1497Y1969D01*
X1498Y1969D01*
X1499Y1969D01*
X1500Y1969D01*
X1501Y1969D01*
X1502Y1969D01*
X1503Y1969D01*
X1504Y1969D01*
X1505Y1969D01*
X1506Y1969D01*
X1507Y1969D01*
X1508Y1969D01*
X1509Y1969D01*
X1510Y1969D01*
X1511Y1969D01*
X1512Y1969D01*
X1513Y1969D01*
X1514Y1969D01*
X1515Y1969D01*
X1516Y1969D01*
X1517Y1969D01*
X1518Y1969D01*
X1519Y1969D01*
X1520Y1969D01*
X1521Y1969D01*
X1522Y1969D01*
X1523Y1969D01*
X1524Y1969D01*
X1525Y1969D01*
X1526Y1969D01*
X1527Y1969D01*
X1528Y1969D01*
X1529Y1969D01*
X1530Y1969D01*
X1531Y1969D01*
X1532Y1969D01*
X1533Y1969D01*
X1534Y1969D01*
X1535Y1969D01*
X1536Y1969D01*
X1537Y1969D01*
X1538Y1969D01*
X1539Y1969D01*
X1540Y1969D01*
X1541Y1969D01*
X1542Y1969D01*
X1543Y1969D01*
X1544Y1969D01*
X1545Y1969D01*
X1546Y1969D01*
X1547Y1969D01*
X1548Y1969D01*
X1549Y1969D01*
X1550Y1969D01*
X1551Y1969D01*
X1552Y1969D01*
X1553Y1969D01*
X1554Y1969D01*
X1555Y1969D01*
X1556Y1969D01*
X1557Y1969D01*
X1558Y1969D01*
X1559Y1969D01*
X1560Y1969D01*
X1561Y1969D01*
X1562Y1969D01*
X1563Y1969D01*
X1564Y1969D01*
X1565Y1969D01*
X1566Y1969D01*
X1567Y1969D01*
X1568Y1969D01*
X1569Y1969D01*
X1570Y1969D01*
X1571Y1969D01*
X1572Y1969D01*
X1573Y1969D01*
X1574Y1969D01*
X1575Y1969D01*
X1576Y1969D01*
X1577Y1969D01*
X1578Y1969D01*
X1579Y1969D01*
X1580Y1969D01*
X1581Y1969D01*
X1582Y1969D01*
X1583Y1969D01*
X1584Y1969D01*
X1585Y1969D01*
X1586Y1969D01*
X1587Y1969D01*
X1588Y1969D01*
X1589Y1969D01*
X1590Y1969D01*
X1591Y1969D01*
X1592Y1969D01*
X1593Y1969D01*
X1594Y1969D01*
X1595Y1969D01*
X1596Y1969D01*
X1597Y1969D01*
X1598Y1969D01*
X1599Y1969D01*
X1600Y1969D01*
X1601Y1969D01*
X1602Y1969D01*
X1603Y1969D01*
X1604Y1969D01*
X1605Y1969D01*
X1606Y1969D01*
X1607Y1969D01*
X1608Y1969D01*
X1609Y1969D01*
X1610Y1969D01*
X1611Y1969D01*
X1612Y1969D01*
X1613Y1969D01*
X1614Y1969D01*
X1615Y1969D01*
X1616Y1969D01*
X1617Y1969D01*
X1618Y1969D01*
X1619Y1969D01*
X1620Y1969D01*
X1621Y1969D01*
X1622Y1969D01*
X1623Y1969D01*
X1624Y1969D01*
X1625Y1969D01*
X1626Y1969D01*
X1627Y1969D01*
X1628Y1969D01*
X1629Y1969D01*
X1630Y1969D01*
X1631Y1969D01*
X1632Y1969D01*
X1633Y1969D01*
X1634Y1969D01*
X1635Y1969D01*
X1636Y1969D01*
X1637Y1969D01*
X1638Y1969D01*
X1639Y1969D01*
X1640Y1969D01*
X1641Y1969D01*
X1642Y1969D01*
X1643Y1969D01*
X1644Y1969D01*
X1645Y1969D01*
X1646Y1969D01*
X1647Y1969D01*
X1648Y1969D01*
X1649Y1969D01*
X1650Y1969D01*
X1651Y1969D01*
X1652Y1969D01*
X1653Y1969D01*
X1654Y1969D01*
X1655Y1969D01*
X1656Y1969D01*
X1657Y1969D01*
X1658Y1969D01*
X1659Y1969D01*
X1660Y1969D01*
X1661Y1969D01*
X1662Y1969D01*
X1663Y1969D01*
X1664Y1969D01*
X1665Y1969D01*
X1666Y1969D01*
X1667Y1969D01*
X1668Y1969D01*
X1669Y1969D01*
X1670Y1969D01*
X1671Y1969D01*
X1672Y1969D01*
X1673Y1969D01*
X1674Y1969D01*
X1675Y1969D01*
X1676Y1969D01*
X1677Y1969D01*
X1678Y1969D01*
X1679Y1969D01*
X1680Y1969D01*
X1681Y1969D01*
X1682Y1969D01*
X1683Y1969D01*
X1684Y1969D01*
X1685Y1969D01*
X1686Y1969D01*
X1687Y1969D01*
X1688Y1969D01*
X1689Y1969D01*
X1690Y1969D01*
X1691Y1969D01*
X1692Y1969D01*
X1693Y1969D01*
X1694Y1969D01*
X1695Y1969D01*
X1696Y1969D01*
X1697Y1969D01*
X1698Y1969D01*
X1699Y1969D01*
X1700Y1969D01*
X1701Y1969D01*
X1702Y1969D01*
X1703Y1969D01*
X1704Y1969D01*
X1705Y1969D01*
X1706Y1969D01*
X1707Y1969D01*
X1708Y1969D01*
X1709Y1969D01*
X1710Y1969D01*
X1711Y1969D01*
X1712Y1969D01*
X1713Y1969D01*
X1714Y1969D01*
X1715Y1969D01*
X1716Y1969D01*
X1717Y1969D01*
X1718Y1969D01*
X1719Y1969D01*
X1720Y1969D01*
X1721Y1969D01*
X1722Y1969D01*
X1723Y1969D01*
X1724Y1969D01*
X1725Y1969D01*
X1726Y1969D01*
X1727Y1969D01*
X1728Y1969D01*
X1729Y1969D01*
X1730Y1969D01*
X1731Y1969D01*
X1732Y1969D01*
X1733Y1969D01*
X1734Y1969D01*
X1735Y1969D01*
X1736Y1969D01*
X1737Y1969D01*
X1738Y1969D01*
X1739Y1969D01*
X1740Y1969D01*
X1741Y1969D01*
X1742Y1969D01*
X1743Y1969D01*
X1744Y1969D01*
X1745Y1969D01*
X1746Y1969D01*
X1747Y1969D01*
X1748Y1969D01*
X1749Y1969D01*
X1750Y1969D01*
X1751Y1969D01*
X1752Y1969D01*
X1753Y1969D01*
X1754Y1969D01*
X1755Y1969D01*
X1756Y1969D01*
X1757Y1969D01*
X1758Y1969D01*
X1759Y1969D01*
X1760Y1969D01*
X1761Y1969D01*
X1762Y1969D01*
X1763Y1969D01*
X1764Y1969D01*
X1765Y1969D01*
X1766Y1969D01*
X1767Y1969D01*
X1768Y1969D01*
X1769Y1969D01*
X1770Y1969D01*
X1771Y1969D01*
X1772Y1969D01*
X1773Y1969D01*
X1774Y1969D01*
X1775Y1969D01*
X1776Y1969D01*
X1777Y1969D01*
X1778Y1969D01*
X1779Y1969D01*
X1780Y1969D01*
X1781Y1969D01*
X1782Y1969D01*
X1783Y1969D01*
X1784Y1969D01*
X1785Y1969D01*
X1786Y1969D01*
X1787Y1969D01*
X1788Y1969D01*
X1789Y1969D01*
X1790Y1969D01*
X1791Y1969D01*
X1792Y1969D01*
X1793Y1969D01*
X1794Y1969D01*
X1795Y1969D01*
X1796Y1969D01*
X1797Y1969D01*
X1798Y1969D01*
X1799Y1969D01*
X1800Y1969D01*
X1801Y1969D01*
X1802Y1969D01*
X1803Y1969D01*
X1804Y1969D01*
X1805Y1969D01*
X1806Y1969D01*
X1807Y1969D01*
X1808Y1969D01*
X1809Y1969D01*
X1810Y1969D01*
X1811Y1969D01*
X1812Y1969D01*
X1813Y1969D01*
X1814Y1969D01*
X1815Y1969D01*
X1816Y1969D01*
X1817Y1969D01*
X1818Y1969D01*
X1819Y1969D01*
X1820Y1969D01*
X1821Y1969D01*
X1822Y1969D01*
X1823Y1969D01*
X1824Y1969D01*
X1825Y1969D01*
X1826Y1969D01*
X1827Y1969D01*
X1828Y1969D01*
X1829Y1969D01*
X1830Y1969D01*
X1831Y1969D01*
X1832Y1969D01*
X1833Y1969D01*
X1834Y1969D01*
X1835Y1969D01*
X1836Y1969D01*
X1837Y1969D01*
X1838Y1969D01*
X1839Y1969D01*
X1840Y1969D01*
X1841Y1969D01*
X1842Y1969D01*
X1843Y1969D01*
X1844Y1969D01*
X1845Y1969D01*
X1846Y1969D01*
X1847Y1969D01*
X1848Y1969D01*
X1849Y1969D01*
X1850Y1969D01*
X1851Y1969D01*
X1852Y1969D01*
X1853Y1969D01*
X1854Y1969D01*
X1855Y1969D01*
X1856Y1969D01*
X1857Y1969D01*
X1858Y1969D01*
X1859Y1969D01*
X1860Y1969D01*
X1861Y1969D01*
X1862Y1969D01*
X1863Y1969D01*
X1864Y1969D01*
X1865Y1969D01*
X1866Y1969D01*
X1867Y1969D01*
X1868Y1969D01*
X1869Y1969D01*
X1870Y1969D01*
X1871Y1969D01*
X1872Y1969D01*
X1873Y1969D01*
X1874Y1969D01*
X1875Y1969D01*
X1876Y1969D01*
X1877Y1969D01*
X1878Y1969D01*
X1879Y1969D01*
X1880Y1969D01*
X1881Y1969D01*
X1882Y1969D01*
X1883Y1969D01*
X1884Y1969D01*
X1885Y1969D01*
X1886Y1969D01*
X1887Y1969D01*
X1888Y1969D01*
X1889Y1969D01*
X1890Y1969D01*
X1891Y1969D01*
X1892Y1969D01*
X1893Y1969D01*
X1894Y1969D01*
X1895Y1969D01*
X1896Y1969D01*
X1897Y1969D01*
X1898Y1969D01*
X1899Y1969D01*
X1900Y1969D01*
X1901Y1969D01*
X1902Y1969D01*
X1903Y1969D01*
X1904Y1969D01*
X1905Y1969D01*
X1906Y1969D01*
X1907Y1969D01*
X1908Y1969D01*
X1909Y1969D01*
X1910Y1969D01*
X1911Y1969D01*
X1912Y1969D01*
X1913Y1969D01*
X1914Y1969D01*
X1915Y1969D01*
X1916Y1969D01*
X1917Y1969D01*
X1918Y1969D01*
X1919Y1969D01*
X1920Y1969D01*
X1921Y1969D01*
X1922Y1969D01*
X1923Y1969D01*
X1924Y1969D01*
X1925Y1969D01*
X1926Y1969D01*
X1927Y1969D01*
X1928Y1969D01*
X1929Y1969D01*
X1930Y1969D01*
X1931Y1969D01*
X1932Y1969D01*
X1933Y1969D01*
X1934Y1969D01*
X1935Y1969D01*
X1936Y1969D01*
X1937Y1969D01*
X1938Y1969D01*
X1939Y1969D01*
X1940Y1969D01*
X1941Y1969D01*
X1942Y1969D01*
X1943Y1969D01*
X1944Y1969D01*
X1945Y1969D01*
X1946Y1969D01*
X1947Y1969D01*
X1948Y1969D01*
X1949Y1969D01*
X1950Y1969D01*
X1951Y1969D01*
X1952Y1969D01*
X1953Y1969D01*
X1954Y1969D01*
X1955Y1969D01*
X1956Y1969D01*
X1957Y1969D01*
X1958Y1969D01*
X1959Y1969D01*
X1960Y1969D01*
X1961Y1969D01*
X1962Y1969D01*
X1963Y1969D01*
X1964Y1969D01*
X1965Y1969D01*
X1966Y1969D01*
X1967Y1969D01*
X1968Y1969D01*
X1969Y1969D01*
X1970Y1969D01*
X1971Y1969D01*
X1972Y1969D01*
X1973Y1969D01*
X1974Y1969D01*
X1975Y1969D01*
X1976Y1969D01*
X1977Y1969D01*
X1978Y1969D01*
X1979Y1969D01*
X1980Y1969D01*
X1981Y1969D01*
X1982Y1969D01*
X1983Y1969D01*
X1984Y1969D01*
X1985Y1969D01*
X1986Y1969D01*
X1987Y1969D01*
X1988Y1969D01*
X1989Y1969D01*
X1990Y1969D01*
X1991Y1969D01*
X1992Y1969D01*
X1993Y1969D01*
X1994Y1969D01*
X1995Y1969D01*
X1996Y1969D01*
X1997Y1969D01*
X1998Y1969D01*
X1999Y1969D01*
X2000Y1969D01*
X2001Y1969D01*
X2002Y1969D01*
X2003Y1969D01*
X2004Y1969D01*
X2005Y1969D01*
X2006Y1969D01*
X2007Y1969D01*
X2008Y1969D01*
X2009Y1969D01*
X2010Y1969D01*
X2011Y1969D01*
X2012Y1969D01*
X2013Y1969D01*
X2014Y1969D01*
X2015Y1969D01*
X2016Y1969D01*
X2017Y1969D01*
X2018Y1969D01*
X2019Y1969D01*
X2020Y1969D01*
X2021Y1969D01*
X2022Y1969D01*
X2023Y1969D01*
X2024Y1969D01*
X2025Y1969D01*
X2026Y1969D01*
X2027Y1969D01*
X2028Y1969D01*
X2029Y1969D01*
X2030Y1969D01*
X2031Y1969D01*
X2032Y1969D01*
X2033Y1969D01*
X2034Y1969D01*
X2035Y1969D01*
X2036Y1969D01*
X2037Y1969D01*
X2038Y1969D01*
X2039Y1969D01*
X2040Y1969D01*
X2041Y1969D01*
X2042Y1969D01*
X2043Y1969D01*
X2044Y1969D01*
X2045Y1969D01*
X2046Y1969D01*
X2047Y1969D01*
X2048Y1969D01*
X2049Y1969D01*
X2050Y1969D01*
X2051Y1969D01*
X2052Y1969D01*
X2053Y1969D01*
X2054Y1969D01*
X2055Y1969D01*
X2056Y1969D01*
X2057Y1969D01*
X2058Y1969D01*
X2059Y1969D01*
X2060Y1969D01*
X2061Y1969D01*
X2062Y1969D01*
X2063Y1969D01*
X2064Y1969D01*
X2065Y1969D01*
X2066Y1969D01*
X2067Y1969D01*
X2068Y1969D01*
X2069Y1969D01*
X2070Y1969D01*
X2071Y1969D01*
X2072Y1969D01*
X2073Y1969D01*
X2074Y1969D01*
X2075Y1969D01*
X2076Y1969D01*
X2077Y1969D01*
X2078Y1969D01*
X2079Y1969D01*
X2080Y1969D01*
X2081Y1969D01*
X2082Y1969D01*
X2083Y1969D01*
X2084Y1969D01*
X2085Y1969D01*
X2086Y1969D01*
X2087Y1969D01*
X2088Y1969D01*
X2089Y1969D01*
X2090Y1969D01*
X2091Y1969D01*
X2092Y1969D01*
X2093Y1969D01*
X2094Y1969D01*
X2095Y1969D01*
X2096Y1969D01*
X2097Y1969D01*
X2098Y1969D01*
X2099Y1969D01*
X2100Y1969D01*
X2101Y1969D01*
X2102Y1969D01*
X2103Y1969D01*
X2104Y1969D01*
X2105Y1969D01*
X2106Y1969D01*
X2107Y1969D01*
X2108Y1969D01*
X2109Y1969D01*
X2110Y1969D01*
X2111Y1969D01*
X2112Y1969D01*
X2113Y1969D01*
X2114Y1969D01*
X2115Y1969D01*
X2116Y1969D01*
X2117Y1969D01*
X2118Y1969D01*
X2119Y1969D01*
X2120Y1969D01*
X2121Y1969D01*
X2122Y1969D01*
X2123Y1969D01*
X2124Y1969D01*
X2125Y1969D01*
X2126Y1969D01*
X2127Y1969D01*
X2128Y1969D01*
X2129Y1969D01*
X2130Y1969D01*
X2131Y1969D01*
X2132Y1969D01*
X2133Y1969D01*
X2134Y1969D01*
X2135Y1969D01*
X2136Y1969D01*
X2137Y1969D01*
X2138Y1969D01*
X2139Y1969D01*
X2140Y1969D01*
X2141Y1969D01*
X2142Y1969D01*
X2143Y1969D01*
X2144Y1969D01*
X2145Y1969D01*
X2146Y1969D01*
X2147Y1969D01*
X2148Y1969D01*
X2149Y1969D01*
X2150Y1969D01*
X2151Y1969D01*
X2152Y1969D01*
X2153Y1969D01*
X2154Y1969D01*
X2155Y1969D01*
X2156Y1969D01*
X2157Y1969D01*
X2158Y1969D01*
X2159Y1969D01*
X2160Y1969D01*
X2161Y1969D01*
X2162Y1969D01*
X2163Y1969D01*
X2164Y1969D01*
X2165Y1969D01*
X2166Y1969D01*
X2167Y1969D01*
X2168Y1969D01*
X2169Y1969D01*
X2170Y1969D01*
X2171Y1969D01*
X2172Y1969D01*
X2173Y1969D01*
X2174Y1969D01*
X2175Y1969D01*
X2176Y1969D01*
X2177Y1969D01*
X2178Y1969D01*
X2179Y1969D01*
X2180Y1969D01*
X2181Y1969D01*
X2182Y1969D01*
X2183Y1969D01*
X2184Y1969D01*
X2185Y1969D01*
X2186Y1969D01*
X2187Y1969D01*
X2188Y1969D01*
X2189Y1969D01*
X2190Y1969D01*
X2191Y1969D01*
X2192Y1968D01*
X2193Y1968D01*
X2194Y1968D01*
X2195Y1968D01*
X2196Y1968D01*
X2197Y1968D01*
X2198Y1968D01*
X2199Y1968D01*
X2200Y1968D01*
X2201Y1968D01*
X2202Y1968D01*
X2203Y1968D01*
X2204Y1968D01*
X2205Y1968D01*
X2206Y1967D01*
X2207Y1967D01*
X2208Y1967D01*
X2209Y1967D01*
X2210Y1967D01*
X2211Y1967D01*
X2212Y1967D01*
X2213Y1967D01*
X2214Y1967D01*
X2215Y1967D01*
X2216Y1966D01*
X2217Y1966D01*
X2218Y1966D01*
X2219Y1966D01*
X2220Y1966D01*
X2221Y1966D01*
X2222Y1966D01*
X2223Y1966D01*
X2224Y1965D01*
X2225Y1965D01*
X2226Y1965D01*
X2227Y1965D01*
X2228Y1965D01*
X2229Y1965D01*
X2230Y1965D01*
X2231Y1964D01*
X2232Y1964D01*
X2233Y1964D01*
X2234Y1964D01*
X2235Y1964D01*
X2236Y1964D01*
X2237Y1963D01*
X2238Y1963D01*
X2239Y1963D01*
X2240Y1963D01*
X2241Y1963D01*
X2242Y1962D01*
X2243Y1962D01*
X2244Y1962D01*
X2245Y1962D01*
X2246Y1962D01*
X2247Y1961D01*
X2248Y1961D01*
X2249Y1961D01*
X2250Y1961D01*
X2251Y1961D01*
X2252Y1960D01*
X2253Y1960D01*
X2254Y1960D01*
X2255Y1960D01*
X2256Y1960D01*
X2257Y1959D01*
X2258Y1959D01*
X2259Y1959D01*
X2260Y1959D01*
X2261Y1958D01*
X2262Y1958D01*
X2263Y1958D01*
X2264Y1958D01*
X2265Y1957D01*
X2266Y1957D01*
X2267Y1957D01*
X2268Y1957D01*
X2269Y1956D01*
X2270Y1956D01*
X2271Y1956D01*
X2272Y1955D01*
X2273Y1955D01*
X2274Y1955D01*
X2275Y1955D01*
X2276Y1954D01*
X2277Y1954D01*
X2278Y1954D01*
X2279Y1954D01*
X2280Y1953D01*
X2281Y1953D01*
X2282Y1953D01*
X2283Y1952D01*
X2284Y1952D01*
X2285Y1952D01*
X2286Y1951D01*
X2287Y1951D01*
X2288Y1951D01*
X2289Y1950D01*
X2290Y1950D01*
X2291Y1950D01*
X2292Y1949D01*
X2293Y1949D01*
X2294Y1949D01*
X2295Y1948D01*
X2296Y1948D01*
X2297Y1948D01*
X2298Y1947D01*
X2299Y1947D01*
X2300Y1947D01*
X2301Y1946D01*
X2302Y1946D01*
X2303Y1946D01*
X2304Y1945D01*
X2305Y1945D01*
X2306Y1944D01*
X2307Y1944D01*
X2308Y1944D01*
X2309Y1943D01*
X2310Y1943D01*
X2311Y1942D01*
X2312Y1942D01*
X2313Y1942D01*
X2314Y1941D01*
X2315Y1941D01*
X2316Y1940D01*
X2317Y1940D01*
X2318Y1940D01*
X2319Y1939D01*
X2320Y1939D01*
X2321Y1938D01*
X2322Y1938D01*
X2323Y1938D01*
X2324Y1937D01*
X2325Y1937D01*
X2326Y1936D01*
X2327Y1936D01*
X2328Y1935D01*
X2329Y1935D01*
X2330Y1934D01*
X2331Y1934D01*
X2332Y1933D01*
X2333Y1933D01*
X2334Y1932D01*
X2335Y1932D01*
X2336Y1931D01*
X2337Y1931D01*
X2338Y1931D01*
X2339Y1930D01*
X2340Y1930D01*
X2341Y1929D01*
X2342Y1929D01*
X2343Y1928D01*
X2344Y1927D01*
X2345Y1927D01*
X2346Y1926D01*
X2347Y1926D01*
X2348Y1925D01*
X2349Y1925D01*
X2350Y1924D01*
X2351Y1924D01*
X2352Y1923D01*
X2353Y1923D01*
X2354Y1922D01*
X2355Y1922D01*
X2356Y1921D01*
X2357Y1921D01*
X2358Y1920D01*
X2359Y1919D01*
X2360Y1919D01*
X2361Y1918D01*
X2362Y1918D01*
X2363Y1917D01*
X2364Y1917D01*
X2365Y1916D01*
X2366Y1915D01*
X2367Y1915D01*
X2368Y1914D01*
X2369Y1914D01*
X2370Y1913D01*
X2371Y1912D01*
X2372Y1912D01*
X2373Y1911D01*
X2374Y1911D01*
X2375Y1910D01*
X2376Y1909D01*
X2377Y1909D01*
X2378Y1908D01*
X2379Y1907D01*
X2380Y1907D01*
X2381Y1906D01*
X2382Y1905D01*
X2383Y1905D01*
X2384Y1904D01*
X2385Y1903D01*
X2386Y1903D01*
X2387Y1902D01*
X2388Y1901D01*
X2389Y1901D01*
X2390Y1900D01*
X2391Y1899D01*
X2392Y1898D01*
X2393Y1898D01*
X2394Y1897D01*
X2395Y1896D01*
X2396Y1896D01*
X2397Y1895D01*
X2398Y1894D01*
X2399Y1893D01*
X2400Y1893D01*
X2401Y1892D01*
X2402Y1891D01*
X2403Y1890D01*
X2404Y1890D01*
X2405Y1889D01*
X2406Y1888D01*
X2407Y1887D01*
X2408Y1886D01*
X2409Y1886D01*
X2410Y1885D01*
X2411Y1884D01*
X2412Y1883D01*
X2413Y1882D01*
X2414Y1882D01*
X2415Y1881D01*
X2416Y1880D01*
X2417Y1879D01*
X2418Y1878D01*
X2419Y1877D01*
X2420Y1877D01*
X2421Y1876D01*
X2422Y1875D01*
X2423Y1874D01*
X2424Y1873D01*
X2425Y1872D01*
X2426Y1871D01*
X2427Y1870D01*
X2428Y1870D01*
X2429Y1869D01*
X2430Y1868D01*
X2431Y1867D01*
X2432Y1866D01*
X2433Y1865D01*
X2434Y1864D01*
X2435Y1863D01*
X2436Y1862D01*
X2437Y1861D01*
X2438Y1860D01*
X2439Y1859D01*
X2440Y1858D01*
X2441Y1857D01*
X2442Y1856D01*
X2443Y1855D01*
X2444Y1854D01*
X2445Y1853D01*
X2446Y1852D01*
X2447Y1851D01*
X2448Y1850D01*
X2449Y1849D01*
X2450Y1848D01*
X2451Y1847D01*
X2452Y1846D01*
X2453Y1845D01*
X2454Y1844D01*
X2455Y1843D01*
X2455Y1842D01*
X2456Y1841D01*
X2457Y1840D01*
X2458Y1839D01*
X2459Y1838D01*
X2460Y1837D01*
X2461Y1836D01*
X2462Y1835D01*
X2462Y1834D01*
X2463Y1833D01*
X2464Y1832D01*
X2465Y1831D01*
X2466Y1830D01*
X2467Y1829D01*
X2467Y1828D01*
X2468Y1827D01*
X2469Y1826D01*
X2470Y1825D01*
X2471Y1824D01*
X2472Y1823D01*
X2472Y1822D01*
X2473Y1821D01*
X2474Y1820D01*
X2475Y1819D01*
X2475Y1818D01*
X2476Y1817D01*
X2477Y1816D01*
X2478Y1815D01*
X2478Y1814D01*
X2479Y1813D01*
X2480Y1812D01*
X2481Y1811D01*
X2481Y1810D01*
X2482Y1809D01*
X2483Y1808D01*
X2484Y1807D01*
X2484Y1806D01*
X2485Y1805D01*
X2486Y1804D01*
X2486Y1803D01*
X2487Y1802D01*
X2488Y1801D01*
X2488Y1800D01*
X2489Y1799D01*
X2490Y1798D01*
X2490Y1797D01*
X2491Y1796D01*
X2492Y1795D01*
X2492Y1794D01*
X2493Y1793D01*
X2494Y1792D01*
X2494Y1791D01*
X2495Y1790D01*
X2496Y1789D01*
X2496Y1788D01*
X2497Y1787D01*
X2497Y1786D01*
X2498Y1785D01*
X2499Y1784D01*
X2499Y1783D01*
X2500Y1782D01*
X2501Y1781D01*
X2501Y1780D01*
X2502Y1779D01*
X2502Y1778D01*
X2503Y1777D01*
X2504Y1776D01*
X2504Y1775D01*
X2505Y1774D01*
X2505Y1773D01*
X2506Y1772D01*
X2506Y1771D01*
X2507Y1770D01*
X2507Y1769D01*
X2508Y1768D01*
X2509Y1767D01*
X2509Y1766D01*
X2510Y1765D01*
X2510Y1764D01*
X2511Y1763D01*
X2511Y1762D01*
X2512Y1761D01*
X2512Y1760D01*
X2513Y1759D01*
X2513Y1758D01*
X2514Y1757D01*
X2514Y1756D01*
X2515Y1755D01*
X2515Y1754D01*
X2516Y1753D01*
X2516Y1752D01*
X2517Y1751D01*
X2517Y1750D01*
X2518Y1749D01*
X2518Y1748D01*
X2519Y1747D01*
X2519Y1746D01*
X2520Y1745D01*
X2520Y1744D01*
X2521Y1743D01*
X2521Y1742D01*
X2522Y1741D01*
X2522Y1740D01*
X2523Y1739D01*
X2523Y1737D01*
X2524Y1736D01*
X2524Y1735D01*
X2525Y1734D01*
X2525Y1733D01*
X2526Y1732D01*
X2526Y1730D01*
X2527Y1729D01*
X2527Y1728D01*
X2528Y1727D01*
X2528Y1726D01*
X2529Y1725D01*
X2529Y1723D01*
X2530Y1722D01*
X2530Y1720D01*
X2531Y1719D01*
X2531Y1718D01*
X2532Y1717D01*
X2532Y1715D01*
X2533Y1714D01*
X2533Y1713D01*
X2534Y1712D01*
X2534Y1710D01*
X2535Y1709D01*
X2535Y1707D01*
X2536Y1706D01*
X2536Y1704D01*
X2537Y1703D01*
X2537Y1701D01*
X2538Y1700D01*
X2538Y1698D01*
X2539Y1697D01*
X2539Y1695D01*
X2540Y1694D01*
X2540Y1692D01*
X2541Y1691D01*
X2541Y1689D01*
X2542Y1688D01*
X2542Y1685D01*
X2543Y1684D01*
X2543Y1682D01*
X2544Y1681D01*
X2544Y1678D01*
X2545Y1677D01*
X2545Y1674D01*
X2546Y1673D01*
X2546Y1670D01*
X2547Y1669D01*
X2547Y1666D01*
X2548Y1665D01*
X2548Y1661D01*
X2549Y1660D01*
X2549Y1657D01*
X2550Y1656D01*
X2550Y1652D01*
X2551Y1651D01*
X2551Y1646D01*
X2552Y1645D01*
X2552Y1641D01*
X2553Y1640D01*
X2553Y1634D01*
X2554Y1633D01*
X2554Y1627D01*
X2555Y1626D01*
X2555Y1619D01*
X2556Y1618D01*
X2556Y1609D01*
X2557Y1608D01*
X2557Y1594D01*
X2558Y1593D01*
X2558Y378D01*
X2557Y377D01*
X2557Y363D01*
X2556Y362D01*
X2556Y353D01*
X2555Y352D01*
X2555Y345D01*
X2554Y344D01*
X2554Y338D01*
X2553Y337D01*
X2553Y331D01*
X2552Y330D01*
X2552Y326D01*
X2551Y325D01*
X2551Y320D01*
X2550Y319D01*
X2550Y315D01*
X2549Y314D01*
X2549Y311D01*
X2548Y310D01*
X2548Y306D01*
X2547Y305D01*
X2547Y302D01*
X2546Y301D01*
X2546Y298D01*
X2545Y297D01*
X2545Y294D01*
X2544Y293D01*
X2544Y290D01*
X2543Y289D01*
X2543Y287D01*
X2542Y286D01*
X2542Y283D01*
X2541Y282D01*
X2541Y280D01*
X2540Y279D01*
X2540Y277D01*
X2539Y276D01*
X2539Y274D01*
X2538Y273D01*
X2538Y271D01*
X2537Y270D01*
X2537Y268D01*
X2536Y267D01*
X2536Y265D01*
X2535Y264D01*
X2535Y262D01*
X2534Y261D01*
X2534Y259D01*
X2533Y258D01*
X2533Y257D01*
X2532Y256D01*
X2532Y254D01*
X2531Y253D01*
X2531Y252D01*
X2530Y251D01*
X2530Y249D01*
X2529Y248D01*
X2529Y246D01*
X2528Y245D01*
X2528Y244D01*
X2527Y243D01*
X2527Y242D01*
X2526Y241D01*
X2526Y239D01*
X2525Y238D01*
X2525Y237D01*
X2524Y236D01*
X2524Y235D01*
X2523Y234D01*
X2523Y232D01*
X2522Y231D01*
X2522Y230D01*
X2521Y229D01*
X2521Y228D01*
X2520Y227D01*
X2520Y226D01*
X2519Y225D01*
X2519Y224D01*
X2518Y223D01*
X2518Y222D01*
X2517Y221D01*
X2517Y220D01*
X2516Y219D01*
X2516Y218D01*
X2515Y217D01*
X2515Y216D01*
X2514Y215D01*
X2514Y214D01*
X2513Y213D01*
X2513Y212D01*
X2512Y211D01*
X2512Y210D01*
X2511Y209D01*
X2511Y208D01*
X2510Y207D01*
X2510Y206D01*
X2509Y205D01*
X2509Y204D01*
X2508Y203D01*
X2507Y202D01*
X2507Y201D01*
X2506Y200D01*
X2506Y199D01*
X2505Y198D01*
X2505Y197D01*
X2504Y196D01*
X2504Y195D01*
X2503Y194D01*
X2502Y193D01*
X2502Y192D01*
X2501Y191D01*
X2501Y190D01*
X2500Y189D01*
X2499Y188D01*
X2499Y187D01*
X2498Y186D01*
X2497Y185D01*
X2497Y184D01*
X2496Y183D01*
X2496Y182D01*
X2495Y181D01*
X2494Y180D01*
X2494Y179D01*
X2493Y178D01*
X2492Y177D01*
X2492Y176D01*
X2491Y175D01*
X2490Y174D01*
X2490Y173D01*
X2489Y172D01*
X2488Y171D01*
X2488Y170D01*
X2487Y169D01*
X2486Y168D01*
X2486Y167D01*
X2485Y166D01*
X2484Y165D01*
X2484Y164D01*
X2483Y163D01*
X2482Y162D01*
X2481Y161D01*
X2481Y160D01*
X2480Y159D01*
X2479Y158D01*
X2478Y157D01*
X2478Y156D01*
X2477Y155D01*
X2476Y154D01*
X2475Y153D01*
X2475Y152D01*
X2474Y151D01*
X2473Y150D01*
X2472Y149D01*
X2472Y148D01*
X2471Y147D01*
X2470Y146D01*
X2469Y145D01*
X2468Y144D01*
X2467Y143D01*
X2467Y142D01*
X2466Y141D01*
X2465Y140D01*
X2464Y139D01*
X2463Y138D01*
X2462Y137D01*
X2462Y136D01*
X2461Y135D01*
X2460Y134D01*
X2459Y133D01*
X2458Y132D01*
X2457Y131D01*
X2456Y130D01*
X2455Y129D01*
X2455Y128D01*
X2454Y127D01*
X2453Y126D01*
X2452Y125D01*
X2451Y124D01*
X2450Y123D01*
X2449Y122D01*
X2448Y121D01*
X2447Y120D01*
X2446Y119D01*
X2445Y118D01*
X2444Y117D01*
X2443Y116D01*
X2442Y115D01*
X2441Y114D01*
X2440Y113D01*
X2439Y112D01*
X2438Y111D01*
X2437Y110D01*
X2436Y109D01*
X2435Y108D01*
X2434Y107D01*
X2433Y106D01*
X2432Y105D01*
X2431Y104D01*
X2430Y103D01*
X2429Y102D01*
X2428Y101D01*
X2427Y101D01*
X2426Y100D01*
X2425Y99D01*
X2424Y98D01*
X2423Y97D01*
X2422Y96D01*
X2421Y95D01*
X2420Y94D01*
X2419Y94D01*
X2418Y93D01*
X2417Y92D01*
X2416Y91D01*
X2415Y90D01*
X2414Y89D01*
X2413Y89D01*
X2412Y88D01*
X2411Y87D01*
X2410Y86D01*
X2409Y85D01*
X2408Y85D01*
X2407Y84D01*
X2406Y83D01*
X2405Y82D01*
X2404Y81D01*
X2403Y81D01*
X2402Y80D01*
X2401Y79D01*
X2400Y78D01*
X2399Y78D01*
X2398Y77D01*
X2397Y76D01*
X2396Y75D01*
X2395Y75D01*
X2394Y74D01*
X2393Y73D01*
X2392Y73D01*
X2391Y72D01*
X2390Y71D01*
X2389Y70D01*
X2388Y70D01*
X2387Y69D01*
X2386Y68D01*
X2385Y68D01*
X2384Y67D01*
X2383Y66D01*
X2382Y66D01*
X2381Y65D01*
X2380Y64D01*
X2379Y64D01*
X2378Y63D01*
X2377Y62D01*
X2376Y62D01*
X2375Y61D01*
X2374Y60D01*
X2373Y60D01*
X2372Y59D01*
X2371Y59D01*
X2370Y58D01*
X2369Y57D01*
X2368Y57D01*
X2367Y56D01*
X2366Y56D01*
X2365Y55D01*
X2364Y54D01*
X2363Y54D01*
X2362Y53D01*
X2361Y53D01*
X2360Y52D01*
X2359Y52D01*
X2358Y51D01*
X2357Y50D01*
X2356Y50D01*
X2355Y49D01*
X2354Y49D01*
X2353Y48D01*
X2352Y48D01*
X2351Y47D01*
X2350Y47D01*
X2349Y46D01*
X2348Y46D01*
X2347Y45D01*
X2346Y45D01*
X2345Y44D01*
X2344Y44D01*
X2343Y43D01*
X2342Y42D01*
X2341Y42D01*
X2340Y41D01*
X2339Y41D01*
X2338Y40D01*
X2337Y40D01*
X2336Y40D01*
X2335Y39D01*
X2334Y39D01*
X2333Y38D01*
X2332Y38D01*
X2331Y37D01*
X2330Y37D01*
X2329Y36D01*
X2328Y36D01*
X2327Y35D01*
X2326Y35D01*
X2325Y34D01*
X2324Y34D01*
X2323Y33D01*
X2322Y33D01*
X2321Y33D01*
X2320Y32D01*
X2319Y32D01*
X2318Y31D01*
X2317Y31D01*
X2316Y31D01*
X2315Y30D01*
X2314Y30D01*
X2313Y29D01*
X2312Y29D01*
X2311Y29D01*
X2310Y28D01*
X2309Y28D01*
X2308Y27D01*
X2307Y27D01*
X2306Y27D01*
X2305Y26D01*
X2304Y26D01*
X2303Y25D01*
X2302Y25D01*
X2301Y25D01*
X2300Y24D01*
X2299Y24D01*
X2298Y24D01*
X2297Y23D01*
X2296Y23D01*
X2295Y23D01*
X2294Y22D01*
X2293Y22D01*
X2292Y22D01*
X2291Y21D01*
X2290Y21D01*
X2289Y21D01*
X2288Y20D01*
X2287Y20D01*
X2286Y20D01*
X2285Y19D01*
X2284Y19D01*
X2283Y19D01*
X2282Y18D01*
X2281Y18D01*
X2280Y18D01*
X2279Y17D01*
X2278Y17D01*
X2277Y17D01*
X2276Y17D01*
X2275Y16D01*
X2274Y16D01*
X2273Y16D01*
X2272Y16D01*
X2271Y15D01*
X2270Y15D01*
X2269Y15D01*
X2268Y14D01*
X2267Y14D01*
X2266Y14D01*
X2265Y14D01*
X2264Y13D01*
X2263Y13D01*
X2262Y13D01*
X2261Y13D01*
X2260Y12D01*
X2259Y12D01*
X2258Y12D01*
X2257Y12D01*
X2256Y11D01*
X2255Y11D01*
X2254Y11D01*
X2253Y11D01*
X2252Y11D01*
X2251Y10D01*
X2250Y10D01*
X2249Y10D01*
X2248Y10D01*
X2247Y10D01*
X2246Y9D01*
X2245Y9D01*
X2244Y9D01*
X2243Y9D01*
X2242Y9D01*
X2241Y8D01*
X2240Y8D01*
X2239Y8D01*
X2238Y8D01*
X2237Y8D01*
X2236Y7D01*
X2235Y7D01*
X2234Y7D01*
X2233Y7D01*
X2232Y7D01*
X2231Y7D01*
X2230Y6D01*
X2229Y6D01*
X2228Y6D01*
X2227Y6D01*
X2226Y6D01*
X2225Y6D01*
X2224Y6D01*
X2223Y5D01*
X2222Y5D01*
X2221Y5D01*
X2220Y5D01*
X2219Y5D01*
X2218Y5D01*
X2217Y5D01*
X2216Y5D01*
X2215Y4D01*
X2214Y4D01*
X2213Y4D01*
X2212Y4D01*
X2211Y4D01*
X2210Y4D01*
X2209Y4D01*
X2208Y4D01*
X2207Y4D01*
X2206Y4D01*
X2205Y3D01*
X2204Y3D01*
X2203Y3D01*
X2202Y3D01*
X2201Y3D01*
X2200Y3D01*
X2199Y3D01*
X2198Y3D01*
X2197Y3D01*
X2196Y3D01*
X2195Y3D01*
X2194Y3D01*
X2193Y3D01*
X2192Y3D01*
X2191Y2D01*
X2190Y2D01*
X2189Y2D01*
X2188Y2D01*
X2187Y2D01*
X2186Y2D01*
X2185Y2D01*
X2184Y2D01*
X2183Y2D01*
X2182Y2D01*
X2181Y2D01*
X2180Y2D01*
X2179Y2D01*
X2178Y2D01*
X2177Y2D01*
X2176Y2D01*
X2175Y2D01*
X2174Y2D01*
X2173Y2D01*
X2172Y2D01*
X2171Y2D01*
X2170Y2D01*
X2169Y2D01*
X2168Y2D01*
X2167Y2D01*
X2166Y2D01*
X2165Y2D01*
X2164Y2D01*
X2163Y2D01*
X2162Y2D01*
X2161Y2D01*
X2160Y2D01*
X2159Y2D01*
X2158Y2D01*
X2157Y2D01*
X2156Y2D01*
X2155Y2D01*
X2154Y2D01*
X2153Y2D01*
X2152Y2D01*
X2151Y2D01*
X2150Y2D01*
X2149Y2D01*
X2148Y2D01*
X2147Y2D01*
X2146Y2D01*
X2145Y2D01*
X2144Y2D01*
X2143Y2D01*
X2142Y2D01*
X2141Y2D01*
X2140Y2D01*
X2139Y2D01*
X2138Y2D01*
X2137Y2D01*
X2136Y2D01*
X2135Y2D01*
X2134Y2D01*
X2133Y2D01*
X2132Y2D01*
X2131Y2D01*
X2130Y2D01*
X2129Y2D01*
X2128Y2D01*
X2127Y2D01*
X2126Y2D01*
X2125Y2D01*
X2124Y2D01*
X2123Y2D01*
X2122Y2D01*
X2121Y2D01*
X2120Y2D01*
X2119Y2D01*
X2118Y2D01*
X2117Y2D01*
X2116Y2D01*
X2115Y2D01*
X2114Y2D01*
X2113Y2D01*
X2112Y2D01*
X2111Y2D01*
X2110Y2D01*
X2109Y2D01*
X2108Y2D01*
X2107Y2D01*
X2106Y2D01*
X2105Y2D01*
X2104Y2D01*
X2103Y2D01*
X2102Y2D01*
X2101Y2D01*
X2100Y2D01*
X2099Y2D01*
X2098Y2D01*
X2097Y2D01*
X2096Y2D01*
X2095Y2D01*
X2094Y2D01*
X2093Y2D01*
X2092Y2D01*
X2091Y2D01*
X2090Y2D01*
X2089Y2D01*
X2088Y2D01*
X2087Y2D01*
X2086Y2D01*
X2085Y2D01*
X2084Y2D01*
X2083Y2D01*
X2082Y2D01*
X2081Y2D01*
X2080Y2D01*
X2079Y2D01*
X2078Y2D01*
X2077Y2D01*
X2076Y2D01*
X2075Y2D01*
X2074Y2D01*
X2073Y2D01*
X2072Y2D01*
X2071Y2D01*
X2070Y2D01*
X2069Y2D01*
X2068Y2D01*
X2067Y2D01*
X2066Y2D01*
X2065Y2D01*
X2064Y2D01*
X2063Y2D01*
X2062Y2D01*
X2061Y2D01*
X2060Y2D01*
X2059Y2D01*
X2058Y2D01*
X2057Y2D01*
X2056Y2D01*
X2055Y2D01*
X2054Y2D01*
X2053Y2D01*
X2052Y2D01*
X2051Y2D01*
X2050Y2D01*
X2049Y2D01*
X2048Y2D01*
X2047Y2D01*
X2046Y2D01*
X2045Y2D01*
X2044Y2D01*
X2043Y2D01*
X2042Y2D01*
X2041Y2D01*
X2040Y2D01*
X2039Y2D01*
X2038Y2D01*
X2037Y2D01*
X2036Y2D01*
X2035Y2D01*
X2034Y2D01*
X2033Y2D01*
X2032Y2D01*
X2031Y2D01*
X2030Y2D01*
X2029Y2D01*
X2028Y2D01*
X2027Y2D01*
X2026Y2D01*
X2025Y2D01*
X2024Y2D01*
X2023Y2D01*
X2022Y2D01*
X2021Y2D01*
X2020Y2D01*
X2019Y2D01*
X2018Y2D01*
X2017Y2D01*
X2016Y2D01*
X2015Y2D01*
X2014Y2D01*
X2013Y2D01*
X2012Y2D01*
X2011Y2D01*
X2010Y2D01*
X2009Y2D01*
X2008Y2D01*
X2007Y2D01*
X2006Y2D01*
X2005Y2D01*
X2004Y2D01*
X2003Y2D01*
X2002Y2D01*
X2001Y2D01*
X2000Y2D01*
X1999Y2D01*
X1998Y2D01*
X1997Y2D01*
X1996Y2D01*
X1995Y2D01*
X1994Y2D01*
X1993Y2D01*
X1992Y2D01*
X1991Y2D01*
X1990Y2D01*
X1989Y2D01*
X1988Y2D01*
X1987Y2D01*
X1986Y2D01*
X1985Y2D01*
X1984Y2D01*
X1983Y2D01*
X1982Y2D01*
X1981Y2D01*
X1980Y2D01*
X1979Y2D01*
X1978Y2D01*
X1977Y2D01*
X1976Y2D01*
X1975Y2D01*
X1974Y2D01*
X1973Y2D01*
X1972Y2D01*
X1971Y2D01*
X1970Y2D01*
X1969Y2D01*
X1968Y2D01*
X1967Y2D01*
X1966Y2D01*
X1965Y2D01*
X1964Y2D01*
X1963Y2D01*
X1962Y2D01*
X1961Y2D01*
X1960Y2D01*
X1959Y2D01*
X1958Y2D01*
X1957Y2D01*
X1956Y2D01*
X1955Y2D01*
X1954Y2D01*
X1953Y2D01*
X1952Y2D01*
X1951Y2D01*
X1950Y2D01*
X1949Y2D01*
X1948Y2D01*
X1947Y2D01*
X1946Y2D01*
X1945Y2D01*
X1944Y2D01*
X1943Y2D01*
X1942Y2D01*
X1941Y2D01*
X1940Y2D01*
X1939Y2D01*
X1938Y2D01*
X1937Y2D01*
X1936Y2D01*
X1935Y2D01*
X1934Y2D01*
X1933Y2D01*
X1932Y2D01*
X1931Y2D01*
X1930Y2D01*
X1929Y2D01*
X1928Y2D01*
X1927Y2D01*
X1926Y2D01*
X1925Y2D01*
X1924Y2D01*
X1923Y2D01*
X1922Y2D01*
X1921Y2D01*
X1920Y2D01*
X1919Y2D01*
X1918Y2D01*
X1917Y2D01*
X1916Y2D01*
X1915Y2D01*
X1914Y2D01*
X1913Y2D01*
X1912Y2D01*
X1911Y2D01*
X1910Y2D01*
X1909Y2D01*
X1908Y2D01*
X1907Y2D01*
X1906Y2D01*
X1905Y2D01*
X1904Y2D01*
X1903Y2D01*
X1902Y2D01*
X1901Y2D01*
X1900Y2D01*
X1899Y2D01*
X1898Y2D01*
X1897Y2D01*
X1896Y2D01*
X1895Y2D01*
X1894Y2D01*
X1893Y2D01*
X1892Y2D01*
X1891Y2D01*
X1890Y2D01*
X1889Y2D01*
X1888Y2D01*
X1887Y2D01*
X1886Y2D01*
X1885Y2D01*
X1884Y2D01*
X1883Y2D01*
X1882Y2D01*
X1881Y2D01*
X1880Y2D01*
X1879Y2D01*
X1878Y2D01*
X1877Y2D01*
X1876Y2D01*
X1875Y2D01*
X1874Y2D01*
X1873Y2D01*
X1872Y2D01*
X1871Y2D01*
X1870Y2D01*
X1869Y2D01*
X1868Y2D01*
X1867Y2D01*
X1866Y2D01*
X1865Y2D01*
X1864Y2D01*
X1863Y2D01*
X1862Y2D01*
X1861Y2D01*
X1860Y2D01*
X1859Y2D01*
X1858Y2D01*
X1857Y2D01*
X1856Y2D01*
X1855Y2D01*
X1854Y2D01*
X1853Y2D01*
X1852Y2D01*
X1851Y2D01*
X1850Y2D01*
X1849Y2D01*
X1848Y2D01*
X1847Y2D01*
X1846Y2D01*
X1845Y2D01*
X1844Y2D01*
X1843Y2D01*
X1842Y2D01*
X1841Y2D01*
X1840Y2D01*
X1839Y2D01*
X1838Y2D01*
X1837Y2D01*
X1836Y2D01*
X1835Y2D01*
X1834Y2D01*
X1833Y2D01*
X1832Y2D01*
X1831Y2D01*
X1830Y2D01*
X1829Y2D01*
X1828Y2D01*
X1827Y2D01*
X1826Y2D01*
X1825Y2D01*
X1824Y2D01*
X1823Y2D01*
X1822Y2D01*
X1821Y2D01*
X1820Y2D01*
X1819Y2D01*
X1818Y2D01*
X1817Y2D01*
X1816Y2D01*
X1815Y2D01*
X1814Y2D01*
X1813Y2D01*
X1812Y2D01*
X1811Y2D01*
X1810Y2D01*
X1809Y2D01*
X1808Y2D01*
X1807Y2D01*
X1806Y2D01*
X1805Y2D01*
X1804Y2D01*
X1803Y2D01*
X1802Y2D01*
X1801Y2D01*
X1800Y2D01*
X1799Y2D01*
X1798Y2D01*
X1797Y2D01*
X1796Y2D01*
X1795Y2D01*
X1794Y2D01*
X1793Y2D01*
X1792Y2D01*
X1791Y2D01*
X1790Y2D01*
X1789Y2D01*
X1788Y2D01*
X1787Y2D01*
X1786Y2D01*
X1785Y2D01*
X1784Y2D01*
X1783Y2D01*
X1782Y2D01*
X1781Y2D01*
X1780Y2D01*
X1779Y2D01*
X1778Y2D01*
X1777Y2D01*
X1776Y2D01*
X1775Y2D01*
X1774Y2D01*
X1773Y2D01*
X1772Y2D01*
X1771Y2D01*
X1770Y2D01*
X1769Y2D01*
X1768Y2D01*
X1767Y2D01*
X1766Y2D01*
X1765Y2D01*
X1764Y2D01*
X1763Y2D01*
X1762Y2D01*
X1761Y2D01*
X1760Y2D01*
X1759Y2D01*
X1758Y2D01*
X1757Y2D01*
X1756Y2D01*
X1755Y2D01*
X1754Y2D01*
X1753Y2D01*
X1752Y2D01*
X1751Y2D01*
X1750Y2D01*
X1749Y2D01*
X1748Y2D01*
X1747Y2D01*
X1746Y2D01*
X1745Y2D01*
X1744Y2D01*
X1743Y2D01*
X1742Y2D01*
X1741Y2D01*
X1740Y2D01*
X1739Y2D01*
X1738Y2D01*
X1737Y2D01*
X1736Y2D01*
X1735Y2D01*
X1734Y2D01*
X1733Y2D01*
X1732Y2D01*
X1731Y2D01*
X1730Y2D01*
X1729Y2D01*
X1728Y2D01*
X1727Y2D01*
X1726Y2D01*
X1725Y2D01*
X1724Y2D01*
X1723Y2D01*
X1722Y2D01*
X1721Y2D01*
X1720Y2D01*
X1719Y2D01*
X1718Y2D01*
X1717Y2D01*
X1716Y2D01*
X1715Y2D01*
X1714Y2D01*
X1713Y2D01*
X1712Y2D01*
X1711Y2D01*
X1710Y2D01*
X1709Y2D01*
X1708Y2D01*
X1707Y2D01*
X1706Y2D01*
X1705Y2D01*
X1704Y2D01*
X1703Y2D01*
X1702Y2D01*
X1701Y2D01*
X1700Y2D01*
X1699Y2D01*
X1698Y2D01*
X1697Y2D01*
X1696Y2D01*
X1695Y2D01*
X1694Y2D01*
X1693Y2D01*
X1692Y2D01*
X1691Y2D01*
X1690Y2D01*
X1689Y2D01*
X1688Y2D01*
X1687Y2D01*
X1686Y2D01*
X1685Y2D01*
X1684Y2D01*
X1683Y2D01*
X1682Y2D01*
X1681Y2D01*
X1680Y2D01*
X1679Y2D01*
X1678Y2D01*
X1677Y2D01*
X1676Y2D01*
X1675Y2D01*
X1674Y2D01*
X1673Y2D01*
X1672Y2D01*
X1671Y2D01*
X1670Y2D01*
X1669Y2D01*
X1668Y2D01*
X1667Y2D01*
X1666Y2D01*
X1665Y2D01*
X1664Y2D01*
X1663Y2D01*
X1662Y2D01*
X1661Y2D01*
X1660Y2D01*
X1659Y2D01*
X1658Y2D01*
X1657Y2D01*
X1656Y2D01*
X1655Y2D01*
X1654Y2D01*
X1653Y2D01*
X1652Y2D01*
X1651Y2D01*
X1650Y2D01*
X1649Y2D01*
X1648Y2D01*
X1647Y2D01*
X1646Y2D01*
X1645Y2D01*
X1644Y2D01*
X1643Y2D01*
X1642Y2D01*
X1641Y2D01*
X1640Y2D01*
X1639Y2D01*
X1638Y2D01*
X1637Y2D01*
X1636Y2D01*
X1635Y2D01*
X1634Y2D01*
X1633Y2D01*
X1632Y2D01*
X1631Y2D01*
X1630Y2D01*
X1629Y2D01*
X1628Y2D01*
X1627Y2D01*
X1626Y2D01*
X1625Y2D01*
X1624Y2D01*
X1623Y2D01*
X1622Y2D01*
X1621Y2D01*
X1620Y2D01*
X1619Y2D01*
X1618Y2D01*
X1617Y2D01*
X1616Y2D01*
X1615Y2D01*
X1614Y2D01*
X1613Y2D01*
X1612Y2D01*
X1611Y2D01*
X1610Y2D01*
X1609Y2D01*
X1608Y2D01*
X1607Y2D01*
X1606Y2D01*
X1605Y2D01*
X1604Y2D01*
X1603Y2D01*
X1602Y2D01*
X1601Y2D01*
X1600Y2D01*
X1599Y2D01*
X1598Y2D01*
X1597Y2D01*
X1596Y2D01*
X1595Y2D01*
X1594Y2D01*
X1593Y2D01*
X1592Y2D01*
X1591Y2D01*
X1590Y2D01*
X1589Y2D01*
X1588Y2D01*
X1587Y2D01*
X1586Y2D01*
X1585Y2D01*
X1584Y2D01*
X1583Y2D01*
X1582Y2D01*
X1581Y2D01*
X1580Y2D01*
X1579Y2D01*
X1578Y2D01*
X1577Y2D01*
X1576Y2D01*
X1575Y2D01*
X1574Y2D01*
X1573Y2D01*
X1572Y2D01*
X1571Y2D01*
X1570Y2D01*
X1569Y2D01*
X1568Y2D01*
X1567Y2D01*
X1566Y2D01*
X1565Y2D01*
X1564Y2D01*
X1563Y2D01*
X1562Y2D01*
X1561Y2D01*
X1560Y2D01*
X1559Y2D01*
X1558Y2D01*
X1557Y2D01*
X1556Y2D01*
X1555Y2D01*
X1554Y2D01*
X1553Y2D01*
X1552Y2D01*
X1551Y2D01*
X1550Y2D01*
X1549Y2D01*
X1548Y2D01*
X1547Y2D01*
X1546Y2D01*
X1545Y2D01*
X1544Y2D01*
X1543Y2D01*
X1542Y2D01*
X1541Y2D01*
X1540Y2D01*
X1539Y2D01*
X1538Y2D01*
X1537Y2D01*
X1536Y2D01*
X1535Y2D01*
X1534Y2D01*
X1533Y2D01*
X1532Y2D01*
X1531Y2D01*
X1530Y2D01*
X1529Y2D01*
X1528Y2D01*
X1527Y2D01*
X1526Y2D01*
X1525Y2D01*
X1524Y2D01*
X1523Y2D01*
X1522Y2D01*
X1521Y2D01*
X1520Y2D01*
X1519Y2D01*
X1518Y2D01*
X1517Y2D01*
X1516Y2D01*
X1515Y2D01*
X1514Y2D01*
X1513Y2D01*
X1512Y2D01*
X1511Y2D01*
X1510Y2D01*
X1509Y2D01*
X1508Y2D01*
X1507Y2D01*
X1506Y2D01*
X1505Y2D01*
X1504Y2D01*
X1503Y2D01*
X1502Y2D01*
X1501Y2D01*
X1500Y2D01*
X1499Y2D01*
X1498Y2D01*
X1497Y2D01*
X1496Y2D01*
X1495Y2D01*
X1494Y2D01*
X1493Y2D01*
X1492Y2D01*
X1491Y2D01*
X1490Y2D01*
X1489Y2D01*
X1488Y2D01*
X1487Y2D01*
X1486Y2D01*
X1485Y2D01*
X1484Y2D01*
X1483Y2D01*
X1482Y2D01*
X1481Y2D01*
X1480Y2D01*
X1479Y2D01*
X1478Y2D01*
X1477Y2D01*
X1476Y2D01*
X1475Y2D01*
X1474Y2D01*
X1473Y2D01*
X1472Y2D01*
X1471Y2D01*
X1470Y2D01*
X1469Y2D01*
X1468Y2D01*
X1467Y2D01*
X1466Y2D01*
X1465Y2D01*
X1464Y2D01*
X1463Y2D01*
X1462Y2D01*
X1461Y2D01*
X1460Y2D01*
X1459Y2D01*
X1458Y2D01*
X1457Y2D01*
X1456Y2D01*
X1455Y2D01*
X1454Y2D01*
X1453Y2D01*
X1452Y2D01*
X1451Y2D01*
X1450Y2D01*
X1449Y2D01*
X1448Y2D01*
X1447Y2D01*
X1446Y2D01*
X1445Y2D01*
X1444Y2D01*
X1443Y2D01*
X1442Y2D01*
X1441Y2D01*
X1440Y2D01*
X1439Y2D01*
X1438Y2D01*
X1437Y2D01*
X1436Y2D01*
X1435Y2D01*
X1434Y2D01*
X1433Y2D01*
X1432Y2D01*
X1431Y2D01*
X1430Y2D01*
X1429Y2D01*
X1428Y2D01*
X1427Y2D01*
X1426Y2D01*
X1425Y2D01*
X1424Y2D01*
X1423Y2D01*
X1422Y2D01*
X1421Y2D01*
X1420Y2D01*
X1419Y2D01*
X1418Y2D01*
X1417Y2D01*
X1416Y2D01*
X1415Y2D01*
X1414Y2D01*
X1413Y2D01*
X1412Y2D01*
X1411Y2D01*
X1410Y2D01*
X1409Y2D01*
X1408Y2D01*
X1407Y2D01*
X1406Y2D01*
X1405Y2D01*
X1404Y2D01*
X1403Y2D01*
X1402Y2D01*
X1401Y2D01*
X1400Y2D01*
X1399Y2D01*
X1398Y2D01*
X1397Y2D01*
X1396Y2D01*
X1395Y2D01*
X1394Y2D01*
X1393Y2D01*
X1392Y2D01*
X1391Y2D01*
X1390Y2D01*
X1389Y2D01*
X1388Y2D01*
X1387Y2D01*
X1386Y2D01*
X1385Y2D01*
X1384Y2D01*
X1383Y2D01*
X1382Y2D01*
X1381Y2D01*
X1380Y2D01*
X1379Y2D01*
X1378Y2D01*
X1377Y2D01*
X1376Y2D01*
X1375Y2D01*
X1374Y2D01*
X1373Y2D01*
X1372Y2D01*
X1371Y2D01*
X1370Y2D01*
X1369Y2D01*
X1368Y2D01*
X1367Y2D01*
X1366Y2D01*
X1365Y2D01*
X1364Y2D01*
X1363Y2D01*
X1362Y2D01*
X1361Y2D01*
X1360Y2D01*
X1359Y2D01*
X1358Y2D01*
X1357Y2D01*
X1356Y2D01*
X1355Y2D01*
X1354Y2D01*
X1353Y2D01*
X1352Y2D01*
X1351Y2D01*
X1350Y2D01*
X1349Y2D01*
X1348Y2D01*
X1347Y2D01*
X1346Y2D01*
X1345Y2D01*
X1344Y2D01*
X1343Y2D01*
X1342Y2D01*
X1341Y2D01*
X1340Y2D01*
X1339Y2D01*
X1338Y2D01*
X1337Y2D01*
X1336Y2D01*
X1335Y2D01*
X1334Y2D01*
X1333Y2D01*
X1332Y2D01*
X1331Y2D01*
X1330Y2D01*
X1329Y2D01*
X1328Y2D01*
X1327Y2D01*
X1326Y2D01*
X1325Y2D01*
X1324Y2D01*
X1323Y2D01*
X1322Y2D01*
X1321Y2D01*
X1320Y2D01*
X1319Y2D01*
X1318Y2D01*
X1317Y2D01*
X1316Y2D01*
X1315Y2D01*
X1314Y2D01*
X1313Y2D01*
X1312Y2D01*
X1311Y2D01*
X1310Y2D01*
X1309Y2D01*
X1308Y2D01*
X1307Y2D01*
X1306Y2D01*
X1305Y2D01*
X1304Y2D01*
X1303Y2D01*
X1302Y2D01*
X1301Y2D01*
X1300Y2D01*
X1299Y2D01*
X1298Y2D01*
X1297Y2D01*
X1296Y2D01*
X1295Y2D01*
X1294Y2D01*
X1293Y2D01*
X1292Y2D01*
X1291Y2D01*
X1290Y2D01*
X1289Y2D01*
X1288Y2D01*
X1287Y2D01*
X1286Y2D01*
X1285Y2D01*
X1284Y2D01*
X1283Y2D01*
X1282Y2D01*
X1281Y2D01*
X1280Y2D01*
X1279Y2D01*
X1278Y2D01*
X1277Y2D01*
X1276Y2D01*
X1275Y2D01*
X1274Y2D01*
X1273Y2D01*
X1272Y2D01*
X1271Y2D01*
X1270Y2D01*
X1269Y2D01*
X1268Y2D01*
X1267Y2D01*
X1266Y2D01*
X1265Y2D01*
X1264Y2D01*
X1263Y2D01*
X1262Y2D01*
X1261Y2D01*
X1260Y2D01*
X1259Y2D01*
X1258Y2D01*
X1257Y2D01*
X1256Y2D01*
X1255Y2D01*
X1254Y2D01*
X1253Y2D01*
X1252Y2D01*
X1251Y2D01*
X1250Y2D01*
X1249Y2D01*
X1248Y2D01*
X1247Y2D01*
X1246Y2D01*
X1245Y2D01*
X1244Y2D01*
X1243Y2D01*
X1242Y2D01*
X1241Y2D01*
X1240Y2D01*
X1239Y2D01*
X1238Y2D01*
X1237Y2D01*
X1236Y2D01*
X1235Y2D01*
X1234Y2D01*
X1233Y2D01*
X1232Y2D01*
X1231Y2D01*
X1230Y2D01*
X1229Y2D01*
X1228Y2D01*
X1227Y2D01*
X1226Y2D01*
X1225Y2D01*
X1224Y2D01*
X1223Y2D01*
X1222Y2D01*
X1221Y2D01*
X1220Y2D01*
X1219Y2D01*
X1218Y2D01*
X1217Y2D01*
X1216Y2D01*
X1215Y2D01*
X1214Y2D01*
X1213Y2D01*
X1212Y2D01*
X1211Y2D01*
X1210Y2D01*
X1209Y2D01*
X1208Y2D01*
X1207Y2D01*
X1206Y2D01*
X1205Y2D01*
X1204Y2D01*
X1203Y2D01*
X1202Y2D01*
X1201Y2D01*
X1200Y2D01*
X1199Y2D01*
X1198Y2D01*
X1197Y2D01*
X1196Y2D01*
X1195Y2D01*
X1194Y2D01*
X1193Y2D01*
X1192Y2D01*
X1191Y2D01*
X1190Y2D01*
X1189Y2D01*
X1188Y2D01*
X1187Y2D01*
X1186Y2D01*
X1185Y2D01*
X1184Y2D01*
X1183Y2D01*
X1182Y2D01*
X1181Y2D01*
X1180Y2D01*
X1179Y2D01*
X1178Y2D01*
X1177Y2D01*
X1176Y2D01*
X1175Y2D01*
X1174Y2D01*
X1173Y2D01*
X1172Y2D01*
X1171Y2D01*
X1170Y2D01*
X1169Y2D01*
X1168Y2D01*
X1167Y2D01*
X1166Y2D01*
X1165Y2D01*
X1164Y2D01*
X1163Y2D01*
X1162Y2D01*
X1161Y2D01*
X1160Y2D01*
X1159Y2D01*
X1158Y2D01*
X1157Y2D01*
X1156Y2D01*
X1155Y2D01*
X1154Y2D01*
X1153Y2D01*
X1152Y2D01*
X1151Y2D01*
X1150Y2D01*
X1149Y2D01*
X1148Y2D01*
X1147Y2D01*
X1146Y2D01*
X1145Y2D01*
X1144Y2D01*
X1143Y2D01*
X1142Y2D01*
X1141Y2D01*
X1140Y2D01*
X1139Y2D01*
X1138Y2D01*
X1137Y2D01*
X1136Y2D01*
X1135Y2D01*
X1134Y2D01*
X1133Y2D01*
X1132Y2D01*
X1131Y2D01*
X1130Y2D01*
X1129Y2D01*
X1128Y2D01*
X1127Y2D01*
X1126Y2D01*
X1125Y2D01*
X1124Y2D01*
X1123Y2D01*
X1122Y2D01*
X1121Y2D01*
X1120Y2D01*
X1119Y2D01*
X1118Y2D01*
X1117Y2D01*
X1116Y2D01*
X1115Y2D01*
X1114Y2D01*
X1113Y2D01*
X1112Y2D01*
X1111Y2D01*
X1110Y2D01*
X1109Y2D01*
X1108Y2D01*
X1107Y2D01*
X1106Y2D01*
X1105Y2D01*
X1104Y2D01*
X1103Y2D01*
X1102Y2D01*
X1101Y2D01*
X1100Y2D01*
X1099Y2D01*
X1098Y2D01*
X1097Y2D01*
X1096Y2D01*
X1095Y2D01*
X1094Y2D01*
X1093Y2D01*
X1092Y2D01*
X1091Y2D01*
X1090Y2D01*
X1089Y2D01*
X1088Y2D01*
X1087Y2D01*
X1086Y2D01*
X1085Y2D01*
X1084Y2D01*
X1083Y2D01*
X1082Y2D01*
X1081Y2D01*
X1080Y2D01*
X1079Y2D01*
X1078Y2D01*
X1077Y2D01*
X1076Y2D01*
X1075Y2D01*
X1074Y2D01*
X1073Y2D01*
X1072Y2D01*
X1071Y2D01*
X1070Y2D01*
X1069Y2D01*
X1068Y2D01*
X1067Y2D01*
X1066Y2D01*
X1065Y2D01*
X1064Y2D01*
X1063Y2D01*
X1062Y2D01*
X1061Y2D01*
X1060Y2D01*
X1059Y2D01*
X1058Y2D01*
X1057Y2D01*
X1056Y2D01*
X1055Y2D01*
X1054Y2D01*
X1053Y2D01*
X1052Y2D01*
X1051Y2D01*
X1050Y2D01*
X1049Y2D01*
X1048Y2D01*
X1047Y2D01*
X1046Y2D01*
X1045Y2D01*
X1044Y2D01*
X1043Y2D01*
X1042Y2D01*
X1041Y2D01*
X1040Y2D01*
X1039Y2D01*
X1038Y2D01*
X1037Y2D01*
X1036Y2D01*
X1035Y2D01*
X1034Y2D01*
X1033Y2D01*
X1032Y2D01*
X1031Y2D01*
X1030Y2D01*
X1029Y2D01*
X1028Y2D01*
X1027Y2D01*
X1026Y2D01*
X1025Y2D01*
X1024Y2D01*
X1023Y2D01*
X1022Y2D01*
X1021Y2D01*
X1020Y2D01*
X1019Y2D01*
X1018Y2D01*
X1017Y2D01*
X1016Y2D01*
X1015Y2D01*
X1014Y2D01*
X1013Y2D01*
X1012Y2D01*
X1011Y2D01*
X1010Y2D01*
X1009Y2D01*
X1008Y2D01*
X1007Y2D01*
X1006Y2D01*
X1005Y2D01*
X1004Y2D01*
X1003Y2D01*
X1002Y2D01*
X1001Y2D01*
X1000Y2D01*
X999Y2D01*
X998Y2D01*
X997Y2D01*
X996Y2D01*
X995Y2D01*
X994Y2D01*
X993Y2D01*
X992Y2D01*
X991Y2D01*
X990Y2D01*
X989Y2D01*
X988Y2D01*
X987Y2D01*
X986Y2D01*
X985Y2D01*
X984Y2D01*
X983Y2D01*
X982Y2D01*
X981Y2D01*
X980Y2D01*
X979Y2D01*
X978Y2D01*
X977Y2D01*
X976Y2D01*
X975Y2D01*
X974Y2D01*
X973Y2D01*
X972Y2D01*
X971Y2D01*
X970Y2D01*
X969Y2D01*
X968Y2D01*
X967Y2D01*
X966Y2D01*
X965Y2D01*
X964Y2D01*
X963Y2D01*
X962Y2D01*
X961Y2D01*
X960Y2D01*
X959Y2D01*
X958Y2D01*
X957Y2D01*
X956Y2D01*
X955Y2D01*
X954Y2D01*
X953Y2D01*
X952Y2D01*
X951Y2D01*
X950Y2D01*
X949Y2D01*
X948Y2D01*
X947Y2D01*
X946Y2D01*
X945Y2D01*
X944Y2D01*
X943Y2D01*
X942Y2D01*
X941Y2D01*
X940Y2D01*
X939Y2D01*
X938Y2D01*
X937Y2D01*
X936Y2D01*
X935Y2D01*
X934Y2D01*
X933Y2D01*
X932Y2D01*
X931Y2D01*
X930Y2D01*
X929Y2D01*
X928Y2D01*
X927Y2D01*
X926Y2D01*
X925Y2D01*
X924Y2D01*
X923Y2D01*
X922Y2D01*
X921Y2D01*
X920Y2D01*
X919Y2D01*
X918Y2D01*
X917Y2D01*
X916Y2D01*
X915Y2D01*
X914Y2D01*
X913Y2D01*
X912Y2D01*
X911Y2D01*
X910Y2D01*
X909Y2D01*
X908Y2D01*
X907Y2D01*
X906Y2D01*
X905Y2D01*
X904Y2D01*
X903Y2D01*
X902Y2D01*
X901Y2D01*
X900Y2D01*
X899Y2D01*
X898Y2D01*
X897Y2D01*
X896Y2D01*
X895Y2D01*
X894Y2D01*
X893Y2D01*
X892Y2D01*
X891Y2D01*
X890Y2D01*
X889Y2D01*
X888Y2D01*
X887Y2D01*
X886Y2D01*
X885Y2D01*
X884Y2D01*
X883Y2D01*
X882Y2D01*
X881Y2D01*
X880Y2D01*
X879Y2D01*
X878Y2D01*
X877Y2D01*
X876Y2D01*
X875Y2D01*
X874Y2D01*
X873Y2D01*
X872Y2D01*
X871Y2D01*
X870Y2D01*
X869Y2D01*
X868Y2D01*
X867Y2D01*
X866Y2D01*
X865Y2D01*
X864Y2D01*
X863Y2D01*
X862Y2D01*
X861Y2D01*
X860Y2D01*
X859Y2D01*
X858Y2D01*
X857Y2D01*
X856Y2D01*
X855Y2D01*
X854Y2D01*
X853Y2D01*
X852Y2D01*
X851Y2D01*
X850Y2D01*
X849Y2D01*
X848Y2D01*
X847Y2D01*
X846Y2D01*
X845Y2D01*
X844Y2D01*
X843Y2D01*
X842Y2D01*
X841Y2D01*
X840Y2D01*
X839Y2D01*
X838Y2D01*
X837Y2D01*
X836Y2D01*
X835Y2D01*
X834Y2D01*
X833Y2D01*
X832Y2D01*
X831Y2D01*
X830Y2D01*
X829Y2D01*
X828Y2D01*
X827Y2D01*
X826Y2D01*
X825Y2D01*
X824Y2D01*
X823Y2D01*
X822Y2D01*
X821Y2D01*
X820Y2D01*
X819Y2D01*
X818Y2D01*
X817Y2D01*
X816Y2D01*
X815Y2D01*
X814Y2D01*
X813Y2D01*
X812Y2D01*
X811Y2D01*
X810Y2D01*
X809Y2D01*
X808Y2D01*
X807Y2D01*
X806Y2D01*
X805Y2D01*
X804Y2D01*
X803Y2D01*
X802Y2D01*
X801Y2D01*
X800Y2D01*
X799Y2D01*
X798Y2D01*
X797Y2D01*
X796Y2D01*
X795Y2D01*
X794Y2D01*
X793Y2D01*
X792Y2D01*
X791Y2D01*
X790Y2D01*
X789Y2D01*
X788Y2D01*
X787Y2D01*
X786Y2D01*
X785Y2D01*
X784Y2D01*
X783Y2D01*
X782Y2D01*
X781Y2D01*
X780Y2D01*
X779Y2D01*
X778Y2D01*
X777Y2D01*
X776Y2D01*
X775Y2D01*
X774Y2D01*
X773Y2D01*
X772Y2D01*
X771Y2D01*
X770Y2D01*
X769Y2D01*
X768Y2D01*
X767Y2D01*
X766Y2D01*
X765Y2D01*
X764Y2D01*
X763Y2D01*
X762Y2D01*
X761Y2D01*
X760Y2D01*
X759Y2D01*
X758Y2D01*
X757Y2D01*
X756Y2D01*
X755Y2D01*
X754Y2D01*
X753Y2D01*
X752Y2D01*
X751Y2D01*
X750Y2D01*
X749Y2D01*
X748Y2D01*
X747Y2D01*
X746Y2D01*
X745Y2D01*
X744Y2D01*
X743Y2D01*
X742Y2D01*
X741Y2D01*
X740Y2D01*
X739Y2D01*
X738Y2D01*
X737Y2D01*
X736Y2D01*
X735Y2D01*
X734Y2D01*
X733Y2D01*
X732Y2D01*
X731Y2D01*
X730Y2D01*
X729Y2D01*
X728Y2D01*
X727Y2D01*
X726Y2D01*
X725Y2D01*
X724Y2D01*
X723Y2D01*
X722Y2D01*
X721Y2D01*
X720Y2D01*
X719Y2D01*
X718Y2D01*
X717Y2D01*
X716Y2D01*
X715Y2D01*
X714Y2D01*
X713Y2D01*
X712Y2D01*
X711Y2D01*
X710Y2D01*
X709Y2D01*
X708Y2D01*
X707Y2D01*
X706Y2D01*
X705Y2D01*
X704Y2D01*
X703Y2D01*
X702Y2D01*
X701Y2D01*
X700Y2D01*
X699Y2D01*
X698Y2D01*
X697Y2D01*
X696Y2D01*
X695Y2D01*
X694Y2D01*
X693Y2D01*
X692Y2D01*
X691Y2D01*
X690Y2D01*
X689Y2D01*
X688Y2D01*
X687Y2D01*
X686Y2D01*
X685Y2D01*
X684Y2D01*
X683Y2D01*
X682Y2D01*
X681Y2D01*
X680Y2D01*
X679Y2D01*
X678Y2D01*
X677Y2D01*
X676Y2D01*
X675Y2D01*
X674Y2D01*
X673Y2D01*
X672Y2D01*
X671Y2D01*
X670Y2D01*
X669Y2D01*
X668Y2D01*
X667Y2D01*
X666Y2D01*
X665Y2D01*
X664Y2D01*
X663Y2D01*
X662Y2D01*
X661Y2D01*
X660Y2D01*
X659Y2D01*
X658Y2D01*
X657Y2D01*
X656Y2D01*
X655Y2D01*
X654Y2D01*
X653Y2D01*
X652Y2D01*
X651Y2D01*
X650Y2D01*
X649Y2D01*
X648Y2D01*
X647Y2D01*
X646Y2D01*
X645Y2D01*
X644Y2D01*
X643Y2D01*
X642Y2D01*
X641Y2D01*
X640Y2D01*
X639Y2D01*
X638Y2D01*
X637Y2D01*
X636Y2D01*
X635Y2D01*
X634Y2D01*
X633Y2D01*
X632Y2D01*
X631Y2D01*
X630Y2D01*
X629Y2D01*
X628Y2D01*
X627Y2D01*
X626Y2D01*
X625Y2D01*
X624Y2D01*
X623Y2D01*
X622Y2D01*
X621Y2D01*
X620Y2D01*
X619Y2D01*
X618Y2D01*
X617Y2D01*
X616Y2D01*
X615Y2D01*
X614Y2D01*
X613Y2D01*
X612Y2D01*
X611Y2D01*
X610Y2D01*
X609Y2D01*
X608Y2D01*
X607Y2D01*
X606Y2D01*
X605Y2D01*
X604Y2D01*
X603Y2D01*
X602Y2D01*
X601Y2D01*
X600Y2D01*
X599Y2D01*
X598Y2D01*
X597Y2D01*
X596Y2D01*
X595Y2D01*
X594Y2D01*
X593Y2D01*
X592Y2D01*
X591Y2D01*
X590Y2D01*
X589Y2D01*
X588Y2D01*
X587Y2D01*
X586Y2D01*
X585Y2D01*
X584Y2D01*
X583Y2D01*
X582Y2D01*
X581Y2D01*
X580Y2D01*
X579Y2D01*
X578Y2D01*
X577Y2D01*
X576Y2D01*
X575Y2D01*
X574Y2D01*
X573Y2D01*
X572Y2D01*
X571Y2D01*
X570Y2D01*
X569Y2D01*
X568Y2D01*
X567Y2D01*
X566Y2D01*
X565Y2D01*
X564Y2D01*
X563Y2D01*
X562Y2D01*
X561Y2D01*
X560Y2D01*
X559Y2D01*
X558Y2D01*
X557Y2D01*
X556Y2D01*
X555Y2D01*
X554Y2D01*
X553Y2D01*
X552Y2D01*
X551Y2D01*
X550Y2D01*
X549Y2D01*
X548Y2D01*
X547Y2D01*
X546Y2D01*
X545Y2D01*
X544Y2D01*
X543Y2D01*
X542Y2D01*
X541Y2D01*
X540Y2D01*
X539Y2D01*
X538Y2D01*
X537Y2D01*
X536Y2D01*
X535Y2D01*
X534Y2D01*
X533Y2D01*
X532Y2D01*
X531Y2D01*
X530Y2D01*
X529Y2D01*
X528Y2D01*
X527Y2D01*
X526Y2D01*
X525Y2D01*
X524Y2D01*
X523Y2D01*
X522Y2D01*
X521Y2D01*
X520Y2D01*
X519Y2D01*
X518Y2D01*
X517Y2D01*
X516Y2D01*
X515Y2D01*
X514Y2D01*
X513Y2D01*
X512Y2D01*
X511Y2D01*
X510Y2D01*
X509Y2D01*
X508Y2D01*
X507Y2D01*
X506Y2D01*
X505Y2D01*
X504Y2D01*
X503Y2D01*
X502Y2D01*
X501Y2D01*
X500Y2D01*
X499Y2D01*
X498Y2D01*
X497Y2D01*
X496Y2D01*
X495Y2D01*
X494Y2D01*
X493Y2D01*
X492Y2D01*
X491Y2D01*
X490Y2D01*
X489Y2D01*
X488Y2D01*
X487Y2D01*
X486Y2D01*
X485Y2D01*
X484Y2D01*
X483Y2D01*
X482Y2D01*
X481Y2D01*
X480Y2D01*
X479Y2D01*
X478Y2D01*
X477Y2D01*
X476Y2D01*
X475Y2D01*
X474Y2D01*
X473Y2D01*
X472Y2D01*
X471Y2D01*
X470Y2D01*
X469Y2D01*
X468Y2D01*
X467Y2D01*
X466Y2D01*
X465Y2D01*
X464Y2D01*
X463Y2D01*
X462Y2D01*
X461Y2D01*
X460Y2D01*
X459Y2D01*
X458Y2D01*
X457Y2D01*
X456Y2D01*
X455Y2D01*
X454Y2D01*
X453Y2D01*
X452Y2D01*
X451Y2D01*
X450Y2D01*
X449Y2D01*
X448Y2D01*
X447Y2D01*
X446Y2D01*
X445Y2D01*
X444Y2D01*
X443Y2D01*
X442Y2D01*
X441Y2D01*
X440Y2D01*
X439Y2D01*
X438Y2D01*
X437Y2D01*
X436Y2D01*
X435Y2D01*
X434Y2D01*
X433Y2D01*
X432Y2D01*
X431Y2D01*
X430Y2D01*
X429Y2D01*
X428Y2D01*
X427Y2D01*
X426Y2D01*
X425Y2D01*
X424Y2D01*
X423Y2D01*
X422Y2D01*
X421Y2D01*
X420Y2D01*
X419Y2D01*
X418Y2D01*
X417Y2D01*
X416Y2D01*
X415Y2D01*
X414Y2D01*
X413Y2D01*
X412Y2D01*
X411Y2D01*
X410Y2D01*
X409Y2D01*
X408Y2D01*
X407Y2D01*
X406Y2D01*
X405Y2D01*
X404Y2D01*
X403Y2D01*
X402Y2D01*
X401Y2D01*
X400Y2D01*
X399Y2D01*
X398Y2D01*
X397Y2D01*
X396Y2D01*
X395Y2D01*
X394Y2D01*
X393Y2D01*
X392Y2D01*
X391Y2D01*
X390Y2D01*
X389Y2D01*
X388Y2D01*
X387Y2D01*
X386Y2D01*
X385Y2D01*
X384Y2D01*
X383Y2D01*
X382Y2D01*
X381Y2D01*
X380Y2D01*
X379Y2D01*
X378Y2D01*
X377Y2D01*
X376Y2D01*
X375Y2D01*
X374Y2D01*
X373Y2D01*
X372Y2D01*
X371Y2D01*
X370Y2D01*
X369Y2D01*
X368Y2D01*
X367Y2D01*
X366Y3D01*
X365Y3D01*
X364Y3D01*
X363Y3D01*
X362Y3D01*
X361Y3D01*
X360Y3D01*
X359Y3D01*
X358Y3D01*
X357Y3D01*
X356Y3D01*
X355Y3D01*
X354Y3D01*
X353Y3D01*
X352Y4D01*
X351Y4D01*
X350Y4D01*
X349Y4D01*
X348Y4D01*
X347Y4D01*
X346Y4D01*
X345Y4D01*
X344Y4D01*
X343Y4D01*
X342Y5D01*
X341Y5D01*
X340Y5D01*
X339Y5D01*
X338Y5D01*
X337Y5D01*
X336Y5D01*
X335Y5D01*
X334Y6D01*
X333Y6D01*
X332Y6D01*
X331Y6D01*
X330Y6D01*
X329Y6D01*
X328Y6D01*
X327Y7D01*
X326Y7D01*
X325Y7D01*
X324Y7D01*
X323Y7D01*
X322Y7D01*
X321Y8D01*
X320Y8D01*
X319Y8D01*
X318Y8D01*
X317Y8D01*
X316Y9D01*
X315Y9D01*
X314Y9D01*
X313Y9D01*
X312Y9D01*
X311Y10D01*
X310Y10D01*
X309Y10D01*
X308Y10D01*
X307Y10D01*
X306Y11D01*
X305Y11D01*
X304Y11D01*
X303Y11D01*
X302Y11D01*
X301Y12D01*
X300Y12D01*
X299Y12D01*
X298Y12D01*
X297Y13D01*
X296Y13D01*
X295Y13D01*
X294Y13D01*
X293Y14D01*
X292Y14D01*
X291Y14D01*
X290Y14D01*
X289Y15D01*
X288Y15D01*
X287Y15D01*
X286Y16D01*
X285Y16D01*
X284Y16D01*
X283Y16D01*
X282Y17D01*
X281Y17D01*
X280Y17D01*
X279Y17D01*
X278Y18D01*
X277Y18D01*
X276Y18D01*
X275Y19D01*
X274Y19D01*
X273Y19D01*
X272Y20D01*
X271Y20D01*
X270Y20D01*
X269Y21D01*
X268Y21D01*
X267Y21D01*
X266Y22D01*
X265Y22D01*
X264Y22D01*
X263Y23D01*
X262Y23D01*
X261Y23D01*
X260Y24D01*
X259Y24D01*
X258Y24D01*
X257Y25D01*
X256Y25D01*
X255Y25D01*
X254Y26D01*
X253Y26D01*
X252Y27D01*
X251Y27D01*
X250Y27D01*
X249Y28D01*
X248Y28D01*
X247Y29D01*
X246Y29D01*
X245Y29D01*
X244Y30D01*
X243Y30D01*
X242Y31D01*
X241Y31D01*
X240Y31D01*
X239Y32D01*
X238Y32D01*
X237Y33D01*
X236Y33D01*
X235Y33D01*
X234Y34D01*
X233Y34D01*
X232Y35D01*
X231Y35D01*
X230Y36D01*
X229Y36D01*
X228Y37D01*
X227Y37D01*
X226Y38D01*
X225Y38D01*
X224Y39D01*
X223Y39D01*
X222Y40D01*
X221Y40D01*
X220Y40D01*
X219Y41D01*
X218Y41D01*
X217Y42D01*
X216Y42D01*
X215Y43D01*
X214Y44D01*
X213Y44D01*
X212Y45D01*
X211Y45D01*
X210Y46D01*
X209Y46D01*
X208Y47D01*
X207Y47D01*
X206Y48D01*
X205Y48D01*
X204Y49D01*
X203Y49D01*
X202Y50D01*
X201Y50D01*
X200Y51D01*
X199Y52D01*
X198Y52D01*
X197Y53D01*
X196Y53D01*
X195Y54D01*
X194Y54D01*
X193Y55D01*
X192Y56D01*
X191Y56D01*
X190Y57D01*
X189Y57D01*
X188Y58D01*
X187Y59D01*
X186Y59D01*
X185Y60D01*
X184Y60D01*
X183Y61D01*
X182Y62D01*
X181Y62D01*
X180Y63D01*
X179Y64D01*
X178Y64D01*
X177Y65D01*
X176Y66D01*
X175Y66D01*
X174Y67D01*
X173Y68D01*
X172Y68D01*
X171Y69D01*
X170Y70D01*
X169Y70D01*
X168Y71D01*
X167Y72D01*
X166Y73D01*
X165Y73D01*
X164Y74D01*
X163Y75D01*
X162Y75D01*
X161Y76D01*
X160Y77D01*
X159Y78D01*
X158Y78D01*
X157Y79D01*
X156Y80D01*
X155Y81D01*
X154Y81D01*
X153Y82D01*
X152Y83D01*
X151Y84D01*
X150Y85D01*
X149Y85D01*
X148Y86D01*
X147Y87D01*
X146Y88D01*
X145Y89D01*
X144Y89D01*
X143Y90D01*
X142Y91D01*
X141Y92D01*
X140Y93D01*
X139Y94D01*
X138Y94D01*
X137Y95D01*
X136Y96D01*
X135Y97D01*
X134Y98D01*
X133Y99D01*
X132Y100D01*
X131Y101D01*
X130Y101D01*
X129Y102D01*
X128Y103D01*
X127Y104D01*
X126Y105D01*
X125Y106D01*
X124Y107D01*
X123Y108D01*
X122Y109D01*
X121Y110D01*
X120Y111D01*
X119Y112D01*
X118Y113D01*
X117Y114D01*
X116Y115D01*
X115Y116D01*
X114Y117D01*
X113Y118D01*
X112Y119D01*
X111Y120D01*
X110Y121D01*
X109Y122D01*
X108Y123D01*
X107Y124D01*
X106Y125D01*
X105Y126D01*
X104Y127D01*
X103Y128D01*
X103Y129D01*
X102Y130D01*
X101Y131D01*
X100Y132D01*
X99Y133D01*
X98Y134D01*
X97Y135D01*
X96Y136D01*
X96Y137D01*
X95Y138D01*
X94Y139D01*
X93Y140D01*
X92Y141D01*
X91Y142D01*
X91Y143D01*
X90Y144D01*
X89Y145D01*
X88Y146D01*
X87Y147D01*
X86Y148D01*
X86Y149D01*
X85Y150D01*
X84Y151D01*
X83Y152D01*
X83Y153D01*
X82Y154D01*
X81Y155D01*
X80Y156D01*
X80Y157D01*
X79Y158D01*
X78Y159D01*
X77Y160D01*
X77Y161D01*
X76Y162D01*
X75Y163D01*
X74Y164D01*
X74Y165D01*
X73Y166D01*
X72Y167D01*
X72Y168D01*
X71Y169D01*
X70Y170D01*
X70Y171D01*
X69Y172D01*
X68Y173D01*
X68Y174D01*
X67Y175D01*
X66Y176D01*
X66Y177D01*
X65Y178D01*
X64Y179D01*
X64Y180D01*
X63Y181D01*
X62Y182D01*
X62Y183D01*
X61Y184D01*
X61Y185D01*
X60Y186D01*
X59Y187D01*
X59Y188D01*
X58Y189D01*
X57Y190D01*
X57Y191D01*
X56Y192D01*
X56Y193D01*
X55Y194D01*
X54Y195D01*
X54Y196D01*
X53Y197D01*
X53Y198D01*
X52Y199D01*
X52Y200D01*
X51Y201D01*
X51Y202D01*
X50Y203D01*
X49Y204D01*
X49Y205D01*
X48Y206D01*
X48Y207D01*
X47Y208D01*
X47Y209D01*
X46Y210D01*
X46Y211D01*
X45Y212D01*
X45Y213D01*
X44Y214D01*
X44Y215D01*
X43Y216D01*
X43Y217D01*
X42Y218D01*
X42Y219D01*
X41Y220D01*
X41Y221D01*
X40Y222D01*
X40Y223D01*
X39Y224D01*
X39Y225D01*
X38Y226D01*
X38Y227D01*
X37Y228D01*
X37Y229D01*
X36Y230D01*
X36Y231D01*
X35Y232D01*
X35Y234D01*
X34Y235D01*
X34Y236D01*
X33Y237D01*
X33Y238D01*
X32Y239D01*
X32Y241D01*
X31Y242D01*
X31Y243D01*
X30Y244D01*
X30Y245D01*
X29Y246D01*
X29Y248D01*
X28Y249D01*
X28Y251D01*
X27Y252D01*
X27Y253D01*
X26Y254D01*
X26Y256D01*
X25Y257D01*
X25Y258D01*
X24Y259D01*
X24Y261D01*
X23Y262D01*
X23Y264D01*
X22Y265D01*
X22Y267D01*
X21Y268D01*
X21Y270D01*
X20Y271D01*
X20Y273D01*
X19Y274D01*
X19Y276D01*
X18Y277D01*
X18Y279D01*
X17Y280D01*
X17Y282D01*
X16Y283D01*
X16Y286D01*
X15Y287D01*
X15Y289D01*
X14Y290D01*
X14Y293D01*
X13Y294D01*
X13Y297D01*
X12Y298D01*
X12Y301D01*
X11Y302D01*
X11Y305D01*
X10Y306D01*
X10Y310D01*
X9Y311D01*
X9Y314D01*
X8Y315D01*
X8Y319D01*
X7Y320D01*
X7Y325D01*
X6Y326D01*
X6Y330D01*
X5Y331D01*
X5Y337D01*
X4Y338D01*
X4Y344D01*
X3Y345D01*
X3Y352D01*
X2Y353D01*
X2Y362D01*
X1Y363D01*
X1Y377D01*
X0Y378D01*
X0Y1593D01*
X1Y1594D01*
X1Y1608D01*
X2Y1609D01*
X2Y1618D01*
X3Y1619D01*
X3Y1626D01*
X4Y1627D01*
X4Y1633D01*
X5Y1634D01*
X5Y1640D01*
X6Y1641D01*
X6Y1645D01*
X7Y1646D01*
X7Y1651D01*
X8Y1652D01*
X8Y1656D01*
X9Y1657D01*
X9Y1660D01*
X10Y1661D01*
X10Y1665D01*
X11Y1666D01*
X11Y1669D01*
X12Y1670D01*
X12Y1673D01*
X13Y1674D01*
X13Y1677D01*
X14Y1678D01*
X14Y1681D01*
X15Y1682D01*
X15Y1684D01*
X16Y1685D01*
X16Y1688D01*
X17Y1689D01*
X17Y1691D01*
X18Y1692D01*
X18Y1694D01*
X19Y1695D01*
X19Y1697D01*
X20Y1698D01*
X20Y1700D01*
X21Y1701D01*
X21Y1703D01*
X22Y1704D01*
X22Y1706D01*
X23Y1707D01*
X23Y1709D01*
X24Y1710D01*
X24Y1712D01*
X25Y1713D01*
X25Y1714D01*
X26Y1715D01*
X26Y1717D01*
X27Y1718D01*
X27Y1719D01*
X28Y1720D01*
X28Y1722D01*
X29Y1723D01*
X29Y1725D01*
X30Y1726D01*
X30Y1727D01*
X31Y1728D01*
X31Y1729D01*
X32Y1730D01*
X32Y1732D01*
X33Y1733D01*
X33Y1734D01*
X34Y1735D01*
X34Y1736D01*
X35Y1737D01*
X35Y1739D01*
X36Y1740D01*
X36Y1741D01*
X37Y1742D01*
X37Y1743D01*
X38Y1744D01*
X38Y1745D01*
X39Y1746D01*
X39Y1747D01*
X40Y1748D01*
X40Y1749D01*
X41Y1750D01*
X41Y1751D01*
X42Y1752D01*
X42Y1753D01*
X43Y1754D01*
X43Y1755D01*
X44Y1756D01*
X44Y1757D01*
X45Y1758D01*
X45Y1759D01*
X46Y1760D01*
X46Y1761D01*
X47Y1762D01*
X47Y1763D01*
X48Y1764D01*
X48Y1765D01*
X49Y1766D01*
X49Y1767D01*
X50Y1768D01*
X51Y1769D01*
X51Y1770D01*
X52Y1771D01*
X52Y1772D01*
X53Y1773D01*
X53Y1774D01*
X54Y1775D01*
X54Y1776D01*
X55Y1777D01*
X56Y1778D01*
X56Y1779D01*
X57Y1780D01*
X57Y1781D01*
X58Y1782D01*
X59Y1783D01*
X59Y1784D01*
X60Y1785D01*
X61Y1786D01*
X61Y1787D01*
X62Y1788D01*
X62Y1789D01*
X63Y1790D01*
X64Y1791D01*
X64Y1792D01*
X65Y1793D01*
X66Y1794D01*
X66Y1795D01*
X67Y1796D01*
X68Y1797D01*
X68Y1798D01*
X69Y1799D01*
X70Y1800D01*
X70Y1801D01*
X71Y1802D01*
X72Y1803D01*
X72Y1804D01*
X73Y1805D01*
X74Y1806D01*
X74Y1807D01*
X75Y1808D01*
X76Y1809D01*
X77Y1810D01*
X77Y1811D01*
X78Y1812D01*
X79Y1813D01*
X80Y1814D01*
X80Y1815D01*
X81Y1816D01*
X82Y1817D01*
X83Y1818D01*
X83Y1819D01*
X84Y1820D01*
X85Y1821D01*
X86Y1822D01*
X86Y1823D01*
X87Y1824D01*
X88Y1825D01*
X89Y1826D01*
X90Y1827D01*
X91Y1828D01*
X91Y1829D01*
X92Y1830D01*
X93Y1831D01*
X94Y1832D01*
X95Y1833D01*
X96Y1834D01*
X96Y1835D01*
X97Y1836D01*
X98Y1837D01*
X99Y1838D01*
X100Y1839D01*
X101Y1840D01*
X102Y1841D01*
X103Y1842D01*
X103Y1843D01*
X104Y1844D01*
X105Y1845D01*
X106Y1846D01*
X107Y1847D01*
X108Y1848D01*
X109Y1849D01*
X110Y1850D01*
X111Y1851D01*
X112Y1852D01*
X113Y1853D01*
X114Y1854D01*
X115Y1855D01*
X116Y1856D01*
X117Y1857D01*
X118Y1858D01*
X119Y1859D01*
X120Y1860D01*
X121Y1861D01*
X122Y1862D01*
X123Y1863D01*
X124Y1864D01*
X125Y1865D01*
X126Y1866D01*
X127Y1867D01*
X128Y1868D01*
X129Y1869D01*
X130Y1870D01*
X131Y1870D01*
X132Y1871D01*
X133Y1872D01*
X134Y1873D01*
X135Y1874D01*
X136Y1875D01*
X137Y1876D01*
X138Y1877D01*
X139Y1877D01*
X140Y1878D01*
X141Y1879D01*
X142Y1880D01*
X143Y1881D01*
X144Y1882D01*
X145Y1882D01*
X146Y1883D01*
X147Y1884D01*
X148Y1885D01*
X149Y1886D01*
X150Y1886D01*
X151Y1887D01*
X152Y1888D01*
X153Y1889D01*
X154Y1890D01*
X155Y1890D01*
X156Y1891D01*
X157Y1892D01*
X158Y1893D01*
X159Y1893D01*
X160Y1894D01*
X161Y1895D01*
X162Y1896D01*
X163Y1896D01*
X164Y1897D01*
X165Y1898D01*
X166Y1898D01*
X167Y1899D01*
X168Y1900D01*
X169Y1901D01*
X170Y1901D01*
X171Y1902D01*
X172Y1903D01*
X173Y1903D01*
X174Y1904D01*
X175Y1905D01*
X176Y1905D01*
X177Y1906D01*
X178Y1907D01*
X179Y1907D01*
X180Y1908D01*
X181Y1909D01*
X182Y1909D01*
X183Y1910D01*
X184Y1911D01*
X185Y1911D01*
X186Y1912D01*
X187Y1912D01*
X188Y1913D01*
X189Y1914D01*
X190Y1914D01*
X191Y1915D01*
X192Y1915D01*
X193Y1916D01*
X194Y1917D01*
X195Y1917D01*
X196Y1918D01*
X197Y1918D01*
X198Y1919D01*
X199Y1919D01*
X200Y1920D01*
X201Y1921D01*
X202Y1921D01*
X203Y1922D01*
X204Y1922D01*
X205Y1923D01*
X206Y1923D01*
X207Y1924D01*
X208Y1924D01*
X209Y1925D01*
X210Y1925D01*
X211Y1926D01*
X212Y1926D01*
X213Y1927D01*
X214Y1927D01*
X215Y1928D01*
X216Y1929D01*
X217Y1929D01*
X218Y1930D01*
X219Y1930D01*
X220Y1931D01*
X221Y1931D01*
X222Y1931D01*
X223Y1932D01*
X224Y1932D01*
X225Y1933D01*
X226Y1933D01*
X227Y1934D01*
X228Y1934D01*
X229Y1935D01*
X230Y1935D01*
X231Y1936D01*
X232Y1936D01*
X233Y1937D01*
X234Y1937D01*
X235Y1938D01*
X236Y1938D01*
X237Y1938D01*
X238Y1939D01*
X239Y1939D01*
X240Y1940D01*
X241Y1940D01*
X242Y1940D01*
X243Y1941D01*
X244Y1941D01*
X245Y1942D01*
X246Y1942D01*
X247Y1942D01*
X248Y1943D01*
X249Y1943D01*
X250Y1944D01*
X251Y1944D01*
X252Y1944D01*
X253Y1945D01*
X254Y1945D01*
X255Y1946D01*
X256Y1946D01*
X257Y1946D01*
X258Y1947D01*
X259Y1947D01*
X260Y1947D01*
X261Y1948D01*
X262Y1948D01*
X263Y1948D01*
X264Y1949D01*
X265Y1949D01*
X266Y1949D01*
X267Y1950D01*
X268Y1950D01*
X269Y1950D01*
X270Y1951D01*
X271Y1951D01*
X272Y1951D01*
X273Y1952D01*
X274Y1952D01*
X275Y1952D01*
X276Y1953D01*
X277Y1953D01*
X278Y1953D01*
X279Y1954D01*
X280Y1954D01*
X281Y1954D01*
X282Y1954D01*
X283Y1955D01*
X284Y1955D01*
X285Y1955D01*
X286Y1955D01*
X287Y1956D01*
X288Y1956D01*
X289Y1956D01*
X290Y1957D01*
X291Y1957D01*
X292Y1957D01*
X293Y1957D01*
X294Y1958D01*
X295Y1958D01*
X296Y1958D01*
X297Y1958D01*
X298Y1959D01*
X299Y1959D01*
X300Y1959D01*
X301Y1959D01*
X302Y1960D01*
X303Y1960D01*
X304Y1960D01*
X305Y1960D01*
X306Y1960D01*
X307Y1961D01*
X308Y1961D01*
X309Y1961D01*
X310Y1961D01*
X311Y1961D01*
X312Y1962D01*
X313Y1962D01*
X314Y1962D01*
X315Y1962D01*
X316Y1962D01*
X317Y1963D01*
X318Y1963D01*
X319Y1963D01*
X320Y1963D01*
X321Y1963D01*
X322Y1964D01*
X323Y1964D01*
X324Y1964D01*
X325Y1964D01*
X326Y1964D01*
X327Y1964D01*
X328Y1965D01*
X329Y1965D01*
X330Y1965D01*
X331Y1965D01*
X332Y1965D01*
X333Y1965D01*
X334Y1965D01*
X335Y1966D01*
X336Y1966D01*
X337Y1966D01*
X338Y1966D01*
X339Y1966D01*
X340Y1966D01*
X341Y1966D01*
X342Y1966D01*
X343Y1967D01*
X344Y1967D01*
X345Y1967D01*
X346Y1967D01*
X347Y1967D01*
X348Y1967D01*
X349Y1967D01*
X350Y1967D01*
X351Y1967D01*
X352Y1967D01*
X353Y1968D01*
X354Y1968D01*
X355Y1968D01*
X356Y1968D01*
X357Y1968D01*
X358Y1968D01*
X359Y1968D01*
X360Y1968D01*
X361Y1968D01*
X362Y1968D01*
X363Y1968D01*
X364Y1968D01*
X365Y1968D01*
X366Y1968D01*
X367Y1969D01*
D02*
G04 End of contour*
M02*